<svg width="512" height="512" xmlns="http://www.w3.org/2000/svg">
 <title/>

 <g>
  <title>background</title>
  <rect fill="none" id="canvas_background" height="402" width="582" y="-1" x="-1"/>
 </g>
 <g>
  <title>Layer 1</title>
  <path stroke="null" stroke-width="0" fill="#f68b9d" id="svg_1" d="m441.13,406l-372,0a15,15 0 0 1 -15,-15l0,-252a15,15 0 0 1 15,-15l372,0a15,15 0 0 1 15,15l0,252a15,15 0 0 1 -15,15zm-357,-30l342,0l0,-222l-342,0l0,222z"/>
  <path stroke="null" fill="#f68b9d" id="svg_2" d="m255.13,336a15,15 0 0 1 -10.49,-4.28l-186,-182a15,15 0 1 1 21,-21.44l175.49,171.72l175.51,-171.72a15,15 0 0 1 21,21.44l-186,182a15,15 0 0 1 -10.51,4.28z"/>
  <path fill="#f68b9d" id="svg_3" d="m69.13,406a15,15 0 0 1 -10,-26.13l133.87,-120.96a15,15 0 1 1 20.1,22.26l-133.92,121a15,15 0 0 1 -10.05,3.83z"/>
  <path fill="#f68b9d" id="svg_4" d="m441.12,406a14.92,14.92 0 0 1 -10,-3.87l-133.92,-121a15,15 0 0 1 20.1,-22.26l133.92,121a15,15 0 0 1 -10.1,26.13z"/>
 </g>
</svg>