<?xml version="1.0" encoding="utf-8"?>
<!DOCTYPE svg PUBLIC "-//W3C//DTD SVG 1.1//EN" "http://www.w3.org/Graphics/SVG/1.1/DTD/svg11.dtd">
<svg version="1.1" id="Layer_1" xmlns="http://www.w3.org/2000/svg" xmlns:xlink="http://www.w3.org/1999/xlink" x="0px" y="0px"
width="1247px" height="1247px" viewBox="0 0 1247 1247" enable-background="new 0 0 1247 1247" xml:space="preserve">
<rect x="0" y="0" width="1247" height="1247" fill="rgb(255,255,255)" /><g transform="translate(86,86)"><g transform="translate(387,0) scale(0.43,0.43)"><g transform="" style="fill: rgb(246, 139, 157);">
<path style="fill-rule:evenodd;clip-rule:evenodd;" d="M49.984,99.824C45.848,69.47,28.497,53.961-0.345,49.773
	c29.054-3.697,45.791-19.659,50.348-49.949c4.404,29.487,20.907,45.691,49.652,49.975C70.729,54.051,54.532,70.407,49.984,99.824z"
	/>
</g></g><g transform="translate(430,0) scale(0.43,0.43)"><g transform="" style="fill: rgb(246, 139, 157);">
<path style="fill-rule:evenodd;clip-rule:evenodd;" d="M49.984,99.824C45.848,69.47,28.497,53.961-0.345,49.773
	c29.054-3.697,45.791-19.659,50.348-49.949c4.404,29.487,20.907,45.691,49.652,49.975C70.729,54.051,54.532,70.407,49.984,99.824z"
	/>
</g></g><g transform="translate(473,0) scale(0.43,0.43)"><g transform="" style="fill: rgb(246, 139, 157);">
<path style="fill-rule:evenodd;clip-rule:evenodd;" d="M49.984,99.824C45.848,69.47,28.497,53.961-0.345,49.773
	c29.054-3.697,45.791-19.659,50.348-49.949c4.404,29.487,20.907,45.691,49.652,49.975C70.729,54.051,54.532,70.407,49.984,99.824z"
	/>
</g></g><g transform="translate(602,0) scale(0.43,0.43)"><g transform="" style="fill: rgb(246, 139, 157);">
<path style="fill-rule:evenodd;clip-rule:evenodd;" d="M49.984,99.824C45.848,69.47,28.497,53.961-0.345,49.773
	c29.054-3.697,45.791-19.659,50.348-49.949c4.404,29.487,20.907,45.691,49.652,49.975C70.729,54.051,54.532,70.407,49.984,99.824z"
	/>
</g></g><g transform="translate(645,0) scale(0.43,0.43)"><g transform="" style="fill: rgb(246, 139, 157);">
<path style="fill-rule:evenodd;clip-rule:evenodd;" d="M49.984,99.824C45.848,69.47,28.497,53.961-0.345,49.773
	c29.054-3.697,45.791-19.659,50.348-49.949c4.404,29.487,20.907,45.691,49.652,49.975C70.729,54.051,54.532,70.407,49.984,99.824z"
	/>
</g></g><g transform="translate(344,43) scale(0.43,0.43)"><g transform="" style="fill: rgb(246, 139, 157);">
<path style="fill-rule:evenodd;clip-rule:evenodd;" d="M49.984,99.824C45.848,69.47,28.497,53.961-0.345,49.773
	c29.054-3.697,45.791-19.659,50.348-49.949c4.404,29.487,20.907,45.691,49.652,49.975C70.729,54.051,54.532,70.407,49.984,99.824z"
	/>
</g></g><g transform="translate(387,43) scale(0.43,0.43)"><g transform="" style="fill: rgb(246, 139, 157);">
<path style="fill-rule:evenodd;clip-rule:evenodd;" d="M49.984,99.824C45.848,69.47,28.497,53.961-0.345,49.773
	c29.054-3.697,45.791-19.659,50.348-49.949c4.404,29.487,20.907,45.691,49.652,49.975C70.729,54.051,54.532,70.407,49.984,99.824z"
	/>
</g></g><g transform="translate(430,43) scale(0.43,0.43)"><g transform="" style="fill: rgb(246, 139, 157);">
<path style="fill-rule:evenodd;clip-rule:evenodd;" d="M49.984,99.824C45.848,69.47,28.497,53.961-0.345,49.773
	c29.054-3.697,45.791-19.659,50.348-49.949c4.404,29.487,20.907,45.691,49.652,49.975C70.729,54.051,54.532,70.407,49.984,99.824z"
	/>
</g></g><g transform="translate(559,43) scale(0.43,0.43)"><g transform="" style="fill: rgb(246, 139, 157);">
<path style="fill-rule:evenodd;clip-rule:evenodd;" d="M49.984,99.824C45.848,69.47,28.497,53.961-0.345,49.773
	c29.054-3.697,45.791-19.659,50.348-49.949c4.404,29.487,20.907,45.691,49.652,49.975C70.729,54.051,54.532,70.407,49.984,99.824z"
	/>
</g></g><g transform="translate(645,43) scale(0.43,0.43)"><g transform="" style="fill: rgb(246, 139, 157);">
<path style="fill-rule:evenodd;clip-rule:evenodd;" d="M49.984,99.824C45.848,69.47,28.497,53.961-0.345,49.773
	c29.054-3.697,45.791-19.659,50.348-49.949c4.404,29.487,20.907,45.691,49.652,49.975C70.729,54.051,54.532,70.407,49.984,99.824z"
	/>
</g></g><g transform="translate(473,129) scale(0.43,0.43)"><g transform="" style="fill: rgb(246, 139, 157);">
<path style="fill-rule:evenodd;clip-rule:evenodd;" d="M49.984,99.824C45.848,69.47,28.497,53.961-0.345,49.773
	c29.054-3.697,45.791-19.659,50.348-49.949c4.404,29.487,20.907,45.691,49.652,49.975C70.729,54.051,54.532,70.407,49.984,99.824z"
	/>
</g></g><g transform="translate(516,129) scale(0.43,0.43)"><g transform="" style="fill: rgb(246, 139, 157);">
<path style="fill-rule:evenodd;clip-rule:evenodd;" d="M49.984,99.824C45.848,69.47,28.497,53.961-0.345,49.773
	c29.054-3.697,45.791-19.659,50.348-49.949c4.404,29.487,20.907,45.691,49.652,49.975C70.729,54.051,54.532,70.407,49.984,99.824z"
	/>
</g></g><g transform="translate(602,129) scale(0.43,0.43)"><g transform="" style="fill: rgb(246, 139, 157);">
<path style="fill-rule:evenodd;clip-rule:evenodd;" d="M49.984,99.824C45.848,69.47,28.497,53.961-0.345,49.773
	c29.054-3.697,45.791-19.659,50.348-49.949c4.404,29.487,20.907,45.691,49.652,49.975C70.729,54.051,54.532,70.407,49.984,99.824z"
	/>
</g></g><g transform="translate(344,172) scale(0.43,0.43)"><g transform="" style="fill: rgb(246, 139, 157);">
<path style="fill-rule:evenodd;clip-rule:evenodd;" d="M49.984,99.824C45.848,69.47,28.497,53.961-0.345,49.773
	c29.054-3.697,45.791-19.659,50.348-49.949c4.404,29.487,20.907,45.691,49.652,49.975C70.729,54.051,54.532,70.407,49.984,99.824z"
	/>
</g></g><g transform="translate(387,172) scale(0.43,0.43)"><g transform="" style="fill: rgb(246, 139, 157);">
<path style="fill-rule:evenodd;clip-rule:evenodd;" d="M49.984,99.824C45.848,69.47,28.497,53.961-0.345,49.773
	c29.054-3.697,45.791-19.659,50.348-49.949c4.404,29.487,20.907,45.691,49.652,49.975C70.729,54.051,54.532,70.407,49.984,99.824z"
	/>
</g></g><g transform="translate(516,172) scale(0.43,0.43)"><g transform="" style="fill: rgb(246, 139, 157);">
<path style="fill-rule:evenodd;clip-rule:evenodd;" d="M49.984,99.824C45.848,69.47,28.497,53.961-0.345,49.773
	c29.054-3.697,45.791-19.659,50.348-49.949c4.404,29.487,20.907,45.691,49.652,49.975C70.729,54.051,54.532,70.407,49.984,99.824z"
	/>
</g></g><g transform="translate(559,172) scale(0.43,0.43)"><g transform="" style="fill: rgb(246, 139, 157);">
<path style="fill-rule:evenodd;clip-rule:evenodd;" d="M49.984,99.824C45.848,69.47,28.497,53.961-0.345,49.773
	c29.054-3.697,45.791-19.659,50.348-49.949c4.404,29.487,20.907,45.691,49.652,49.975C70.729,54.051,54.532,70.407,49.984,99.824z"
	/>
</g></g><g transform="translate(602,172) scale(0.43,0.43)"><g transform="" style="fill: rgb(246, 139, 157);">
<path style="fill-rule:evenodd;clip-rule:evenodd;" d="M49.984,99.824C45.848,69.47,28.497,53.961-0.345,49.773
	c29.054-3.697,45.791-19.659,50.348-49.949c4.404,29.487,20.907,45.691,49.652,49.975C70.729,54.051,54.532,70.407,49.984,99.824z"
	/>
</g></g><g transform="translate(645,172) scale(0.43,0.43)"><g transform="" style="fill: rgb(246, 139, 157);">
<path style="fill-rule:evenodd;clip-rule:evenodd;" d="M49.984,99.824C45.848,69.47,28.497,53.961-0.345,49.773
	c29.054-3.697,45.791-19.659,50.348-49.949c4.404,29.487,20.907,45.691,49.652,49.975C70.729,54.051,54.532,70.407,49.984,99.824z"
	/>
</g></g><g transform="translate(387,215) scale(0.43,0.43)"><g transform="" style="fill: rgb(246, 139, 157);">
<path style="fill-rule:evenodd;clip-rule:evenodd;" d="M49.984,99.824C45.848,69.47,28.497,53.961-0.345,49.773
	c29.054-3.697,45.791-19.659,50.348-49.949c4.404,29.487,20.907,45.691,49.652,49.975C70.729,54.051,54.532,70.407,49.984,99.824z"
	/>
</g></g><g transform="translate(430,215) scale(0.43,0.43)"><g transform="" style="fill: rgb(246, 139, 157);">
<path style="fill-rule:evenodd;clip-rule:evenodd;" d="M49.984,99.824C45.848,69.47,28.497,53.961-0.345,49.773
	c29.054-3.697,45.791-19.659,50.348-49.949c4.404,29.487,20.907,45.691,49.652,49.975C70.729,54.051,54.532,70.407,49.984,99.824z"
	/>
</g></g><g transform="translate(473,215) scale(0.43,0.43)"><g transform="" style="fill: rgb(246, 139, 157);">
<path style="fill-rule:evenodd;clip-rule:evenodd;" d="M49.984,99.824C45.848,69.47,28.497,53.961-0.345,49.773
	c29.054-3.697,45.791-19.659,50.348-49.949c4.404,29.487,20.907,45.691,49.652,49.975C70.729,54.051,54.532,70.407,49.984,99.824z"
	/>
</g></g><g transform="translate(645,215) scale(0.43,0.43)"><g transform="" style="fill: rgb(246, 139, 157);">
<path style="fill-rule:evenodd;clip-rule:evenodd;" d="M49.984,99.824C45.848,69.47,28.497,53.961-0.345,49.773
	c29.054-3.697,45.791-19.659,50.348-49.949c4.404,29.487,20.907,45.691,49.652,49.975C70.729,54.051,54.532,70.407,49.984,99.824z"
	/>
</g></g><g transform="translate(688,215) scale(0.43,0.43)"><g transform="" style="fill: rgb(246, 139, 157);">
<path style="fill-rule:evenodd;clip-rule:evenodd;" d="M49.984,99.824C45.848,69.47,28.497,53.961-0.345,49.773
	c29.054-3.697,45.791-19.659,50.348-49.949c4.404,29.487,20.907,45.691,49.652,49.975C70.729,54.051,54.532,70.407,49.984,99.824z"
	/>
</g></g><g transform="translate(344,258) scale(0.43,0.43)"><g transform="" style="fill: rgb(246, 139, 157);">
<path style="fill-rule:evenodd;clip-rule:evenodd;" d="M49.984,99.824C45.848,69.47,28.497,53.961-0.345,49.773
	c29.054-3.697,45.791-19.659,50.348-49.949c4.404,29.487,20.907,45.691,49.652,49.975C70.729,54.051,54.532,70.407,49.984,99.824z"
	/>
</g></g><g transform="translate(430,258) scale(0.43,0.43)"><g transform="" style="fill: rgb(246, 139, 157);">
<path style="fill-rule:evenodd;clip-rule:evenodd;" d="M49.984,99.824C45.848,69.47,28.497,53.961-0.345,49.773
	c29.054-3.697,45.791-19.659,50.348-49.949c4.404,29.487,20.907,45.691,49.652,49.975C70.729,54.051,54.532,70.407,49.984,99.824z"
	/>
</g></g><g transform="translate(516,258) scale(0.43,0.43)"><g transform="" style="fill: rgb(246, 139, 157);">
<path style="fill-rule:evenodd;clip-rule:evenodd;" d="M49.984,99.824C45.848,69.47,28.497,53.961-0.345,49.773
	c29.054-3.697,45.791-19.659,50.348-49.949c4.404,29.487,20.907,45.691,49.652,49.975C70.729,54.051,54.532,70.407,49.984,99.824z"
	/>
</g></g><g transform="translate(602,258) scale(0.43,0.43)"><g transform="" style="fill: rgb(246, 139, 157);">
<path style="fill-rule:evenodd;clip-rule:evenodd;" d="M49.984,99.824C45.848,69.47,28.497,53.961-0.345,49.773
	c29.054-3.697,45.791-19.659,50.348-49.949c4.404,29.487,20.907,45.691,49.652,49.975C70.729,54.051,54.532,70.407,49.984,99.824z"
	/>
</g></g><g transform="translate(688,258) scale(0.43,0.43)"><g transform="" style="fill: rgb(246, 139, 157);">
<path style="fill-rule:evenodd;clip-rule:evenodd;" d="M49.984,99.824C45.848,69.47,28.497,53.961-0.345,49.773
	c29.054-3.697,45.791-19.659,50.348-49.949c4.404,29.487,20.907,45.691,49.652,49.975C70.729,54.051,54.532,70.407,49.984,99.824z"
	/>
</g></g><g transform="translate(473,301) scale(0.43,0.43)"><g transform="" style="fill: rgb(246, 139, 157);">
<path style="fill-rule:evenodd;clip-rule:evenodd;" d="M49.984,99.824C45.848,69.47,28.497,53.961-0.345,49.773
	c29.054-3.697,45.791-19.659,50.348-49.949c4.404,29.487,20.907,45.691,49.652,49.975C70.729,54.051,54.532,70.407,49.984,99.824z"
	/>
</g></g><g transform="translate(516,301) scale(0.43,0.43)"><g transform="" style="fill: rgb(246, 139, 157);">
<path style="fill-rule:evenodd;clip-rule:evenodd;" d="M49.984,99.824C45.848,69.47,28.497,53.961-0.345,49.773
	c29.054-3.697,45.791-19.659,50.348-49.949c4.404,29.487,20.907,45.691,49.652,49.975C70.729,54.051,54.532,70.407,49.984,99.824z"
	/>
</g></g><g transform="translate(559,301) scale(0.43,0.43)"><g transform="" style="fill: rgb(246, 139, 157);">
<path style="fill-rule:evenodd;clip-rule:evenodd;" d="M49.984,99.824C45.848,69.47,28.497,53.961-0.345,49.773
	c29.054-3.697,45.791-19.659,50.348-49.949c4.404,29.487,20.907,45.691,49.652,49.975C70.729,54.051,54.532,70.407,49.984,99.824z"
	/>
</g></g><g transform="translate(645,301) scale(0.43,0.43)"><g transform="" style="fill: rgb(246, 139, 157);">
<path style="fill-rule:evenodd;clip-rule:evenodd;" d="M49.984,99.824C45.848,69.47,28.497,53.961-0.345,49.773
	c29.054-3.697,45.791-19.659,50.348-49.949c4.404,29.487,20.907,45.691,49.652,49.975C70.729,54.051,54.532,70.407,49.984,99.824z"
	/>
</g></g><g transform="translate(0,344) scale(0.43,0.43)"><g transform="" style="fill: rgb(246, 139, 157);">
<path style="fill-rule:evenodd;clip-rule:evenodd;" d="M49.984,99.824C45.848,69.47,28.497,53.961-0.345,49.773
	c29.054-3.697,45.791-19.659,50.348-49.949c4.404,29.487,20.907,45.691,49.652,49.975C70.729,54.051,54.532,70.407,49.984,99.824z"
	/>
</g></g><g transform="translate(86,344) scale(0.43,0.43)"><g transform="" style="fill: rgb(246, 139, 157);">
<path style="fill-rule:evenodd;clip-rule:evenodd;" d="M49.984,99.824C45.848,69.47,28.497,53.961-0.345,49.773
	c29.054-3.697,45.791-19.659,50.348-49.949c4.404,29.487,20.907,45.691,49.652,49.975C70.729,54.051,54.532,70.407,49.984,99.824z"
	/>
</g></g><g transform="translate(172,344) scale(0.43,0.43)"><g transform="" style="fill: rgb(246, 139, 157);">
<path style="fill-rule:evenodd;clip-rule:evenodd;" d="M49.984,99.824C45.848,69.47,28.497,53.961-0.345,49.773
	c29.054-3.697,45.791-19.659,50.348-49.949c4.404,29.487,20.907,45.691,49.652,49.975C70.729,54.051,54.532,70.407,49.984,99.824z"
	/>
</g></g><g transform="translate(258,344) scale(0.43,0.43)"><g transform="" style="fill: rgb(246, 139, 157);">
<path style="fill-rule:evenodd;clip-rule:evenodd;" d="M49.984,99.824C45.848,69.47,28.497,53.961-0.345,49.773
	c29.054-3.697,45.791-19.659,50.348-49.949c4.404,29.487,20.907,45.691,49.652,49.975C70.729,54.051,54.532,70.407,49.984,99.824z"
	/>
</g></g><g transform="translate(430,344) scale(0.43,0.43)"><g transform="" style="fill: rgb(246, 139, 157);">
<path style="fill-rule:evenodd;clip-rule:evenodd;" d="M49.984,99.824C45.848,69.47,28.497,53.961-0.345,49.773
	c29.054-3.697,45.791-19.659,50.348-49.949c4.404,29.487,20.907,45.691,49.652,49.975C70.729,54.051,54.532,70.407,49.984,99.824z"
	/>
</g></g><g transform="translate(473,344) scale(0.43,0.43)"><g transform="" style="fill: rgb(246, 139, 157);">
<path style="fill-rule:evenodd;clip-rule:evenodd;" d="M49.984,99.824C45.848,69.47,28.497,53.961-0.345,49.773
	c29.054-3.697,45.791-19.659,50.348-49.949c4.404,29.487,20.907,45.691,49.652,49.975C70.729,54.051,54.532,70.407,49.984,99.824z"
	/>
</g></g><g transform="translate(559,344) scale(0.43,0.43)"><g transform="" style="fill: rgb(246, 139, 157);">
<path style="fill-rule:evenodd;clip-rule:evenodd;" d="M49.984,99.824C45.848,69.47,28.497,53.961-0.345,49.773
	c29.054-3.697,45.791-19.659,50.348-49.949c4.404,29.487,20.907,45.691,49.652,49.975C70.729,54.051,54.532,70.407,49.984,99.824z"
	/>
</g></g><g transform="translate(602,344) scale(0.43,0.43)"><g transform="" style="fill: rgb(246, 139, 157);">
<path style="fill-rule:evenodd;clip-rule:evenodd;" d="M49.984,99.824C45.848,69.47,28.497,53.961-0.345,49.773
	c29.054-3.697,45.791-19.659,50.348-49.949c4.404,29.487,20.907,45.691,49.652,49.975C70.729,54.051,54.532,70.407,49.984,99.824z"
	/>
</g></g><g transform="translate(645,344) scale(0.43,0.43)"><g transform="" style="fill: rgb(246, 139, 157);">
<path style="fill-rule:evenodd;clip-rule:evenodd;" d="M49.984,99.824C45.848,69.47,28.497,53.961-0.345,49.773
	c29.054-3.697,45.791-19.659,50.348-49.949c4.404,29.487,20.907,45.691,49.652,49.975C70.729,54.051,54.532,70.407,49.984,99.824z"
	/>
</g></g><g transform="translate(688,344) scale(0.43,0.43)"><g transform="" style="fill: rgb(246, 139, 157);">
<path style="fill-rule:evenodd;clip-rule:evenodd;" d="M49.984,99.824C45.848,69.47,28.497,53.961-0.345,49.773
	c29.054-3.697,45.791-19.659,50.348-49.949c4.404,29.487,20.907,45.691,49.652,49.975C70.729,54.051,54.532,70.407,49.984,99.824z"
	/>
</g></g><g transform="translate(860,344) scale(0.43,0.43)"><g transform="" style="fill: rgb(246, 139, 157);">
<path style="fill-rule:evenodd;clip-rule:evenodd;" d="M49.984,99.824C45.848,69.47,28.497,53.961-0.345,49.773
	c29.054-3.697,45.791-19.659,50.348-49.949c4.404,29.487,20.907,45.691,49.652,49.975C70.729,54.051,54.532,70.407,49.984,99.824z"
	/>
</g></g><g transform="translate(989,344) scale(0.43,0.43)"><g transform="" style="fill: rgb(246, 139, 157);">
<path style="fill-rule:evenodd;clip-rule:evenodd;" d="M49.984,99.824C45.848,69.47,28.497,53.961-0.345,49.773
	c29.054-3.697,45.791-19.659,50.348-49.949c4.404,29.487,20.907,45.691,49.652,49.975C70.729,54.051,54.532,70.407,49.984,99.824z"
	/>
</g></g><g transform="translate(0,387) scale(0.43,0.43)"><g transform="" style="fill: rgb(246, 139, 157);">
<path style="fill-rule:evenodd;clip-rule:evenodd;" d="M49.984,99.824C45.848,69.47,28.497,53.961-0.345,49.773
	c29.054-3.697,45.791-19.659,50.348-49.949c4.404,29.487,20.907,45.691,49.652,49.975C70.729,54.051,54.532,70.407,49.984,99.824z"
	/>
</g></g><g transform="translate(86,387) scale(0.43,0.43)"><g transform="" style="fill: rgb(246, 139, 157);">
<path style="fill-rule:evenodd;clip-rule:evenodd;" d="M49.984,99.824C45.848,69.47,28.497,53.961-0.345,49.773
	c29.054-3.697,45.791-19.659,50.348-49.949c4.404,29.487,20.907,45.691,49.652,49.975C70.729,54.051,54.532,70.407,49.984,99.824z"
	/>
</g></g><g transform="translate(129,387) scale(0.43,0.43)"><g transform="" style="fill: rgb(246, 139, 157);">
<path style="fill-rule:evenodd;clip-rule:evenodd;" d="M49.984,99.824C45.848,69.47,28.497,53.961-0.345,49.773
	c29.054-3.697,45.791-19.659,50.348-49.949c4.404,29.487,20.907,45.691,49.652,49.975C70.729,54.051,54.532,70.407,49.984,99.824z"
	/>
</g></g><g transform="translate(172,387) scale(0.43,0.43)"><g transform="" style="fill: rgb(246, 139, 157);">
<path style="fill-rule:evenodd;clip-rule:evenodd;" d="M49.984,99.824C45.848,69.47,28.497,53.961-0.345,49.773
	c29.054-3.697,45.791-19.659,50.348-49.949c4.404,29.487,20.907,45.691,49.652,49.975C70.729,54.051,54.532,70.407,49.984,99.824z"
	/>
</g></g><g transform="translate(215,387) scale(0.43,0.43)"><g transform="" style="fill: rgb(246, 139, 157);">
<path style="fill-rule:evenodd;clip-rule:evenodd;" d="M49.984,99.824C45.848,69.47,28.497,53.961-0.345,49.773
	c29.054-3.697,45.791-19.659,50.348-49.949c4.404,29.487,20.907,45.691,49.652,49.975C70.729,54.051,54.532,70.407,49.984,99.824z"
	/>
</g></g><g transform="translate(301,387) scale(0.43,0.43)"><g transform="" style="fill: rgb(246, 139, 157);">
<path style="fill-rule:evenodd;clip-rule:evenodd;" d="M49.984,99.824C45.848,69.47,28.497,53.961-0.345,49.773
	c29.054-3.697,45.791-19.659,50.348-49.949c4.404,29.487,20.907,45.691,49.652,49.975C70.729,54.051,54.532,70.407,49.984,99.824z"
	/>
</g></g><g transform="translate(344,387) scale(0.43,0.43)"><g transform="" style="fill: rgb(246, 139, 157);">
<path style="fill-rule:evenodd;clip-rule:evenodd;" d="M49.984,99.824C45.848,69.47,28.497,53.961-0.345,49.773
	c29.054-3.697,45.791-19.659,50.348-49.949c4.404,29.487,20.907,45.691,49.652,49.975C70.729,54.051,54.532,70.407,49.984,99.824z"
	/>
</g></g><g transform="translate(387,387) scale(0.43,0.43)"><g transform="" style="fill: rgb(246, 139, 157);">
<path style="fill-rule:evenodd;clip-rule:evenodd;" d="M49.984,99.824C45.848,69.47,28.497,53.961-0.345,49.773
	c29.054-3.697,45.791-19.659,50.348-49.949c4.404,29.487,20.907,45.691,49.652,49.975C70.729,54.051,54.532,70.407,49.984,99.824z"
	/>
</g></g><g transform="translate(688,387) scale(0.43,0.43)"><g transform="" style="fill: rgb(246, 139, 157);">
<path style="fill-rule:evenodd;clip-rule:evenodd;" d="M49.984,99.824C45.848,69.47,28.497,53.961-0.345,49.773
	c29.054-3.697,45.791-19.659,50.348-49.949c4.404,29.487,20.907,45.691,49.652,49.975C70.729,54.051,54.532,70.407,49.984,99.824z"
	/>
</g></g><g transform="translate(731,387) scale(0.43,0.43)"><g transform="" style="fill: rgb(246, 139, 157);">
<path style="fill-rule:evenodd;clip-rule:evenodd;" d="M49.984,99.824C45.848,69.47,28.497,53.961-0.345,49.773
	c29.054-3.697,45.791-19.659,50.348-49.949c4.404,29.487,20.907,45.691,49.652,49.975C70.729,54.051,54.532,70.407,49.984,99.824z"
	/>
</g></g><g transform="translate(774,387) scale(0.43,0.43)"><g transform="" style="fill: rgb(246, 139, 157);">
<path style="fill-rule:evenodd;clip-rule:evenodd;" d="M49.984,99.824C45.848,69.47,28.497,53.961-0.345,49.773
	c29.054-3.697,45.791-19.659,50.348-49.949c4.404,29.487,20.907,45.691,49.652,49.975C70.729,54.051,54.532,70.407,49.984,99.824z"
	/>
</g></g><g transform="translate(1032,387) scale(0.43,0.43)"><g transform="" style="fill: rgb(246, 139, 157);">
<path style="fill-rule:evenodd;clip-rule:evenodd;" d="M49.984,99.824C45.848,69.47,28.497,53.961-0.345,49.773
	c29.054-3.697,45.791-19.659,50.348-49.949c4.404,29.487,20.907,45.691,49.652,49.975C70.729,54.051,54.532,70.407,49.984,99.824z"
	/>
</g></g><g transform="translate(0,430) scale(0.43,0.43)"><g transform="" style="fill: rgb(246, 139, 157);">
<path style="fill-rule:evenodd;clip-rule:evenodd;" d="M49.984,99.824C45.848,69.47,28.497,53.961-0.345,49.773
	c29.054-3.697,45.791-19.659,50.348-49.949c4.404,29.487,20.907,45.691,49.652,49.975C70.729,54.051,54.532,70.407,49.984,99.824z"
	/>
</g></g><g transform="translate(43,430) scale(0.43,0.43)"><g transform="" style="fill: rgb(246, 139, 157);">
<path style="fill-rule:evenodd;clip-rule:evenodd;" d="M49.984,99.824C45.848,69.47,28.497,53.961-0.345,49.773
	c29.054-3.697,45.791-19.659,50.348-49.949c4.404,29.487,20.907,45.691,49.652,49.975C70.729,54.051,54.532,70.407,49.984,99.824z"
	/>
</g></g><g transform="translate(129,430) scale(0.43,0.43)"><g transform="" style="fill: rgb(246, 139, 157);">
<path style="fill-rule:evenodd;clip-rule:evenodd;" d="M49.984,99.824C45.848,69.47,28.497,53.961-0.345,49.773
	c29.054-3.697,45.791-19.659,50.348-49.949c4.404,29.487,20.907,45.691,49.652,49.975C70.729,54.051,54.532,70.407,49.984,99.824z"
	/>
</g></g><g transform="translate(172,430) scale(0.43,0.43)"><g transform="" style="fill: rgb(246, 139, 157);">
<path style="fill-rule:evenodd;clip-rule:evenodd;" d="M49.984,99.824C45.848,69.47,28.497,53.961-0.345,49.773
	c29.054-3.697,45.791-19.659,50.348-49.949c4.404,29.487,20.907,45.691,49.652,49.975C70.729,54.051,54.532,70.407,49.984,99.824z"
	/>
</g></g><g transform="translate(215,430) scale(0.43,0.43)"><g transform="" style="fill: rgb(246, 139, 157);">
<path style="fill-rule:evenodd;clip-rule:evenodd;" d="M49.984,99.824C45.848,69.47,28.497,53.961-0.345,49.773
	c29.054-3.697,45.791-19.659,50.348-49.949c4.404,29.487,20.907,45.691,49.652,49.975C70.729,54.051,54.532,70.407,49.984,99.824z"
	/>
</g></g><g transform="translate(258,430) scale(0.43,0.43)"><g transform="" style="fill: rgb(246, 139, 157);">
<path style="fill-rule:evenodd;clip-rule:evenodd;" d="M49.984,99.824C45.848,69.47,28.497,53.961-0.345,49.773
	c29.054-3.697,45.791-19.659,50.348-49.949c4.404,29.487,20.907,45.691,49.652,49.975C70.729,54.051,54.532,70.407,49.984,99.824z"
	/>
</g></g><g transform="translate(301,430) scale(0.43,0.43)"><g transform="" style="fill: rgb(246, 139, 157);">
<path style="fill-rule:evenodd;clip-rule:evenodd;" d="M49.984,99.824C45.848,69.47,28.497,53.961-0.345,49.773
	c29.054-3.697,45.791-19.659,50.348-49.949c4.404,29.487,20.907,45.691,49.652,49.975C70.729,54.051,54.532,70.407,49.984,99.824z"
	/>
</g></g><g transform="translate(516,430) scale(0.43,0.43)"><g transform="" style="fill: rgb(246, 139, 157);">
<path style="fill-rule:evenodd;clip-rule:evenodd;" d="M49.984,99.824C45.848,69.47,28.497,53.961-0.345,49.773
	c29.054-3.697,45.791-19.659,50.348-49.949c4.404,29.487,20.907,45.691,49.652,49.975C70.729,54.051,54.532,70.407,49.984,99.824z"
	/>
</g></g><g transform="translate(559,430) scale(0.43,0.43)"><g transform="" style="fill: rgb(246, 139, 157);">
<path style="fill-rule:evenodd;clip-rule:evenodd;" d="M49.984,99.824C45.848,69.47,28.497,53.961-0.345,49.773
	c29.054-3.697,45.791-19.659,50.348-49.949c4.404,29.487,20.907,45.691,49.652,49.975C70.729,54.051,54.532,70.407,49.984,99.824z"
	/>
</g></g><g transform="translate(688,430) scale(0.43,0.43)"><g transform="" style="fill: rgb(246, 139, 157);">
<path style="fill-rule:evenodd;clip-rule:evenodd;" d="M49.984,99.824C45.848,69.47,28.497,53.961-0.345,49.773
	c29.054-3.697,45.791-19.659,50.348-49.949c4.404,29.487,20.907,45.691,49.652,49.975C70.729,54.051,54.532,70.407,49.984,99.824z"
	/>
</g></g><g transform="translate(774,430) scale(0.43,0.43)"><g transform="" style="fill: rgb(246, 139, 157);">
<path style="fill-rule:evenodd;clip-rule:evenodd;" d="M49.984,99.824C45.848,69.47,28.497,53.961-0.345,49.773
	c29.054-3.697,45.791-19.659,50.348-49.949c4.404,29.487,20.907,45.691,49.652,49.975C70.729,54.051,54.532,70.407,49.984,99.824z"
	/>
</g></g><g transform="translate(860,430) scale(0.43,0.43)"><g transform="" style="fill: rgb(246, 139, 157);">
<path style="fill-rule:evenodd;clip-rule:evenodd;" d="M49.984,99.824C45.848,69.47,28.497,53.961-0.345,49.773
	c29.054-3.697,45.791-19.659,50.348-49.949c4.404,29.487,20.907,45.691,49.652,49.975C70.729,54.051,54.532,70.407,49.984,99.824z"
	/>
</g></g><g transform="translate(946,430) scale(0.43,0.43)"><g transform="" style="fill: rgb(246, 139, 157);">
<path style="fill-rule:evenodd;clip-rule:evenodd;" d="M49.984,99.824C45.848,69.47,28.497,53.961-0.345,49.773
	c29.054-3.697,45.791-19.659,50.348-49.949c4.404,29.487,20.907,45.691,49.652,49.975C70.729,54.051,54.532,70.407,49.984,99.824z"
	/>
</g></g><g transform="translate(989,430) scale(0.43,0.43)"><g transform="" style="fill: rgb(246, 139, 157);">
<path style="fill-rule:evenodd;clip-rule:evenodd;" d="M49.984,99.824C45.848,69.47,28.497,53.961-0.345,49.773
	c29.054-3.697,45.791-19.659,50.348-49.949c4.404,29.487,20.907,45.691,49.652,49.975C70.729,54.051,54.532,70.407,49.984,99.824z"
	/>
</g></g><g transform="translate(1032,430) scale(0.43,0.43)"><g transform="" style="fill: rgb(246, 139, 157);">
<path style="fill-rule:evenodd;clip-rule:evenodd;" d="M49.984,99.824C45.848,69.47,28.497,53.961-0.345,49.773
	c29.054-3.697,45.791-19.659,50.348-49.949c4.404,29.487,20.907,45.691,49.652,49.975C70.729,54.051,54.532,70.407,49.984,99.824z"
	/>
</g></g><g transform="translate(43,473) scale(0.43,0.43)"><g transform="" style="fill: rgb(246, 139, 157);">
<path style="fill-rule:evenodd;clip-rule:evenodd;" d="M49.984,99.824C45.848,69.47,28.497,53.961-0.345,49.773
	c29.054-3.697,45.791-19.659,50.348-49.949c4.404,29.487,20.907,45.691,49.652,49.975C70.729,54.051,54.532,70.407,49.984,99.824z"
	/>
</g></g><g transform="translate(86,473) scale(0.43,0.43)"><g transform="" style="fill: rgb(246, 139, 157);">
<path style="fill-rule:evenodd;clip-rule:evenodd;" d="M49.984,99.824C45.848,69.47,28.497,53.961-0.345,49.773
	c29.054-3.697,45.791-19.659,50.348-49.949c4.404,29.487,20.907,45.691,49.652,49.975C70.729,54.051,54.532,70.407,49.984,99.824z"
	/>
</g></g><g transform="translate(172,473) scale(0.43,0.43)"><g transform="" style="fill: rgb(246, 139, 157);">
<path style="fill-rule:evenodd;clip-rule:evenodd;" d="M49.984,99.824C45.848,69.47,28.497,53.961-0.345,49.773
	c29.054-3.697,45.791-19.659,50.348-49.949c4.404,29.487,20.907,45.691,49.652,49.975C70.729,54.051,54.532,70.407,49.984,99.824z"
	/>
</g></g><g transform="translate(215,473) scale(0.43,0.43)"><g transform="" style="fill: rgb(246, 139, 157);">
<path style="fill-rule:evenodd;clip-rule:evenodd;" d="M49.984,99.824C45.848,69.47,28.497,53.961-0.345,49.773
	c29.054-3.697,45.791-19.659,50.348-49.949c4.404,29.487,20.907,45.691,49.652,49.975C70.729,54.051,54.532,70.407,49.984,99.824z"
	/>
</g></g><g transform="translate(301,473) scale(0.43,0.43)"><g transform="" style="fill: rgb(246, 139, 157);">
<path style="fill-rule:evenodd;clip-rule:evenodd;" d="M49.984,99.824C45.848,69.47,28.497,53.961-0.345,49.773
	c29.054-3.697,45.791-19.659,50.348-49.949c4.404,29.487,20.907,45.691,49.652,49.975C70.729,54.051,54.532,70.407,49.984,99.824z"
	/>
</g></g><g transform="translate(516,473) scale(0.43,0.43)"><g transform="" style="fill: rgb(246, 139, 157);">
<path style="fill-rule:evenodd;clip-rule:evenodd;" d="M49.984,99.824C45.848,69.47,28.497,53.961-0.345,49.773
	c29.054-3.697,45.791-19.659,50.348-49.949c4.404,29.487,20.907,45.691,49.652,49.975C70.729,54.051,54.532,70.407,49.984,99.824z"
	/>
</g></g><g transform="translate(559,473) scale(0.43,0.43)"><g transform="" style="fill: rgb(246, 139, 157);">
<path style="fill-rule:evenodd;clip-rule:evenodd;" d="M49.984,99.824C45.848,69.47,28.497,53.961-0.345,49.773
	c29.054-3.697,45.791-19.659,50.348-49.949c4.404,29.487,20.907,45.691,49.652,49.975C70.729,54.051,54.532,70.407,49.984,99.824z"
	/>
</g></g><g transform="translate(688,473) scale(0.43,0.43)"><g transform="" style="fill: rgb(246, 139, 157);">
<path style="fill-rule:evenodd;clip-rule:evenodd;" d="M49.984,99.824C45.848,69.47,28.497,53.961-0.345,49.773
	c29.054-3.697,45.791-19.659,50.348-49.949c4.404,29.487,20.907,45.691,49.652,49.975C70.729,54.051,54.532,70.407,49.984,99.824z"
	/>
</g></g><g transform="translate(989,473) scale(0.43,0.43)"><g transform="" style="fill: rgb(246, 139, 157);">
<path style="fill-rule:evenodd;clip-rule:evenodd;" d="M49.984,99.824C45.848,69.47,28.497,53.961-0.345,49.773
	c29.054-3.697,45.791-19.659,50.348-49.949c4.404,29.487,20.907,45.691,49.652,49.975C70.729,54.051,54.532,70.407,49.984,99.824z"
	/>
</g></g><g transform="translate(43,516) scale(0.43,0.43)"><g transform="" style="fill: rgb(246, 139, 157);">
<path style="fill-rule:evenodd;clip-rule:evenodd;" d="M49.984,99.824C45.848,69.47,28.497,53.961-0.345,49.773
	c29.054-3.697,45.791-19.659,50.348-49.949c4.404,29.487,20.907,45.691,49.652,49.975C70.729,54.051,54.532,70.407,49.984,99.824z"
	/>
</g></g><g transform="translate(86,516) scale(0.43,0.43)"><g transform="" style="fill: rgb(246, 139, 157);">
<path style="fill-rule:evenodd;clip-rule:evenodd;" d="M49.984,99.824C45.848,69.47,28.497,53.961-0.345,49.773
	c29.054-3.697,45.791-19.659,50.348-49.949c4.404,29.487,20.907,45.691,49.652,49.975C70.729,54.051,54.532,70.407,49.984,99.824z"
	/>
</g></g><g transform="translate(172,516) scale(0.43,0.43)"><g transform="" style="fill: rgb(246, 139, 157);">
<path style="fill-rule:evenodd;clip-rule:evenodd;" d="M49.984,99.824C45.848,69.47,28.497,53.961-0.345,49.773
	c29.054-3.697,45.791-19.659,50.348-49.949c4.404,29.487,20.907,45.691,49.652,49.975C70.729,54.051,54.532,70.407,49.984,99.824z"
	/>
</g></g><g transform="translate(258,516) scale(0.43,0.43)"><g transform="" style="fill: rgb(246, 139, 157);">
<path style="fill-rule:evenodd;clip-rule:evenodd;" d="M49.984,99.824C45.848,69.47,28.497,53.961-0.345,49.773
	c29.054-3.697,45.791-19.659,50.348-49.949c4.404,29.487,20.907,45.691,49.652,49.975C70.729,54.051,54.532,70.407,49.984,99.824z"
	/>
</g></g><g transform="translate(387,516) scale(0.43,0.43)"><g transform="" style="fill: rgb(246, 139, 157);">
<path style="fill-rule:evenodd;clip-rule:evenodd;" d="M49.984,99.824C45.848,69.47,28.497,53.961-0.345,49.773
	c29.054-3.697,45.791-19.659,50.348-49.949c4.404,29.487,20.907,45.691,49.652,49.975C70.729,54.051,54.532,70.407,49.984,99.824z"
	/>
</g></g><g transform="translate(430,516) scale(0.43,0.43)"><g transform="" style="fill: rgb(246, 139, 157);">
<path style="fill-rule:evenodd;clip-rule:evenodd;" d="M49.984,99.824C45.848,69.47,28.497,53.961-0.345,49.773
	c29.054-3.697,45.791-19.659,50.348-49.949c4.404,29.487,20.907,45.691,49.652,49.975C70.729,54.051,54.532,70.407,49.984,99.824z"
	/>
</g></g><g transform="translate(516,516) scale(0.43,0.43)"><g transform="" style="fill: rgb(246, 139, 157);">
<path style="fill-rule:evenodd;clip-rule:evenodd;" d="M49.984,99.824C45.848,69.47,28.497,53.961-0.345,49.773
	c29.054-3.697,45.791-19.659,50.348-49.949c4.404,29.487,20.907,45.691,49.652,49.975C70.729,54.051,54.532,70.407,49.984,99.824z"
	/>
</g></g><g transform="translate(559,516) scale(0.43,0.43)"><g transform="" style="fill: rgb(246, 139, 157);">
<path style="fill-rule:evenodd;clip-rule:evenodd;" d="M49.984,99.824C45.848,69.47,28.497,53.961-0.345,49.773
	c29.054-3.697,45.791-19.659,50.348-49.949c4.404,29.487,20.907,45.691,49.652,49.975C70.729,54.051,54.532,70.407,49.984,99.824z"
	/>
</g></g><g transform="translate(731,516) scale(0.43,0.43)"><g transform="" style="fill: rgb(246, 139, 157);">
<path style="fill-rule:evenodd;clip-rule:evenodd;" d="M49.984,99.824C45.848,69.47,28.497,53.961-0.345,49.773
	c29.054-3.697,45.791-19.659,50.348-49.949c4.404,29.487,20.907,45.691,49.652,49.975C70.729,54.051,54.532,70.407,49.984,99.824z"
	/>
</g></g><g transform="translate(774,516) scale(0.43,0.43)"><g transform="" style="fill: rgb(246, 139, 157);">
<path style="fill-rule:evenodd;clip-rule:evenodd;" d="M49.984,99.824C45.848,69.47,28.497,53.961-0.345,49.773
	c29.054-3.697,45.791-19.659,50.348-49.949c4.404,29.487,20.907,45.691,49.652,49.975C70.729,54.051,54.532,70.407,49.984,99.824z"
	/>
</g></g><g transform="translate(903,516) scale(0.43,0.43)"><g transform="" style="fill: rgb(246, 139, 157);">
<path style="fill-rule:evenodd;clip-rule:evenodd;" d="M49.984,99.824C45.848,69.47,28.497,53.961-0.345,49.773
	c29.054-3.697,45.791-19.659,50.348-49.949c4.404,29.487,20.907,45.691,49.652,49.975C70.729,54.051,54.532,70.407,49.984,99.824z"
	/>
</g></g><g transform="translate(989,516) scale(0.43,0.43)"><g transform="" style="fill: rgb(246, 139, 157);">
<path style="fill-rule:evenodd;clip-rule:evenodd;" d="M49.984,99.824C45.848,69.47,28.497,53.961-0.345,49.773
	c29.054-3.697,45.791-19.659,50.348-49.949c4.404,29.487,20.907,45.691,49.652,49.975C70.729,54.051,54.532,70.407,49.984,99.824z"
	/>
</g></g><g transform="translate(1032,516) scale(0.43,0.43)"><g transform="" style="fill: rgb(246, 139, 157);">
<path style="fill-rule:evenodd;clip-rule:evenodd;" d="M49.984,99.824C45.848,69.47,28.497,53.961-0.345,49.773
	c29.054-3.697,45.791-19.659,50.348-49.949c4.404,29.487,20.907,45.691,49.652,49.975C70.729,54.051,54.532,70.407,49.984,99.824z"
	/>
</g></g><g transform="translate(86,559) scale(0.43,0.43)"><g transform="" style="fill: rgb(246, 139, 157);">
<path style="fill-rule:evenodd;clip-rule:evenodd;" d="M49.984,99.824C45.848,69.47,28.497,53.961-0.345,49.773
	c29.054-3.697,45.791-19.659,50.348-49.949c4.404,29.487,20.907,45.691,49.652,49.975C70.729,54.051,54.532,70.407,49.984,99.824z"
	/>
</g></g><g transform="translate(129,559) scale(0.43,0.43)"><g transform="" style="fill: rgb(246, 139, 157);">
<path style="fill-rule:evenodd;clip-rule:evenodd;" d="M49.984,99.824C45.848,69.47,28.497,53.961-0.345,49.773
	c29.054-3.697,45.791-19.659,50.348-49.949c4.404,29.487,20.907,45.691,49.652,49.975C70.729,54.051,54.532,70.407,49.984,99.824z"
	/>
</g></g><g transform="translate(301,559) scale(0.43,0.43)"><g transform="" style="fill: rgb(246, 139, 157);">
<path style="fill-rule:evenodd;clip-rule:evenodd;" d="M49.984,99.824C45.848,69.47,28.497,53.961-0.345,49.773
	c29.054-3.697,45.791-19.659,50.348-49.949c4.404,29.487,20.907,45.691,49.652,49.975C70.729,54.051,54.532,70.407,49.984,99.824z"
	/>
</g></g><g transform="translate(430,559) scale(0.43,0.43)"><g transform="" style="fill: rgb(246, 139, 157);">
<path style="fill-rule:evenodd;clip-rule:evenodd;" d="M49.984,99.824C45.848,69.47,28.497,53.961-0.345,49.773
	c29.054-3.697,45.791-19.659,50.348-49.949c4.404,29.487,20.907,45.691,49.652,49.975C70.729,54.051,54.532,70.407,49.984,99.824z"
	/>
</g></g><g transform="translate(473,559) scale(0.43,0.43)"><g transform="" style="fill: rgb(246, 139, 157);">
<path style="fill-rule:evenodd;clip-rule:evenodd;" d="M49.984,99.824C45.848,69.47,28.497,53.961-0.345,49.773
	c29.054-3.697,45.791-19.659,50.348-49.949c4.404,29.487,20.907,45.691,49.652,49.975C70.729,54.051,54.532,70.407,49.984,99.824z"
	/>
</g></g><g transform="translate(688,559) scale(0.43,0.43)"><g transform="" style="fill: rgb(246, 139, 157);">
<path style="fill-rule:evenodd;clip-rule:evenodd;" d="M49.984,99.824C45.848,69.47,28.497,53.961-0.345,49.773
	c29.054-3.697,45.791-19.659,50.348-49.949c4.404,29.487,20.907,45.691,49.652,49.975C70.729,54.051,54.532,70.407,49.984,99.824z"
	/>
</g></g><g transform="translate(731,559) scale(0.43,0.43)"><g transform="" style="fill: rgb(246, 139, 157);">
<path style="fill-rule:evenodd;clip-rule:evenodd;" d="M49.984,99.824C45.848,69.47,28.497,53.961-0.345,49.773
	c29.054-3.697,45.791-19.659,50.348-49.949c4.404,29.487,20.907,45.691,49.652,49.975C70.729,54.051,54.532,70.407,49.984,99.824z"
	/>
</g></g><g transform="translate(774,559) scale(0.43,0.43)"><g transform="" style="fill: rgb(246, 139, 157);">
<path style="fill-rule:evenodd;clip-rule:evenodd;" d="M49.984,99.824C45.848,69.47,28.497,53.961-0.345,49.773
	c29.054-3.697,45.791-19.659,50.348-49.949c4.404,29.487,20.907,45.691,49.652,49.975C70.729,54.051,54.532,70.407,49.984,99.824z"
	/>
</g></g><g transform="translate(903,559) scale(0.43,0.43)"><g transform="" style="fill: rgb(246, 139, 157);">
<path style="fill-rule:evenodd;clip-rule:evenodd;" d="M49.984,99.824C45.848,69.47,28.497,53.961-0.345,49.773
	c29.054-3.697,45.791-19.659,50.348-49.949c4.404,29.487,20.907,45.691,49.652,49.975C70.729,54.051,54.532,70.407,49.984,99.824z"
	/>
</g></g><g transform="translate(1032,559) scale(0.43,0.43)"><g transform="" style="fill: rgb(246, 139, 157);">
<path style="fill-rule:evenodd;clip-rule:evenodd;" d="M49.984,99.824C45.848,69.47,28.497,53.961-0.345,49.773
	c29.054-3.697,45.791-19.659,50.348-49.949c4.404,29.487,20.907,45.691,49.652,49.975C70.729,54.051,54.532,70.407,49.984,99.824z"
	/>
</g></g><g transform="translate(0,602) scale(0.43,0.43)"><g transform="" style="fill: rgb(246, 139, 157);">
<path style="fill-rule:evenodd;clip-rule:evenodd;" d="M49.984,99.824C45.848,69.47,28.497,53.961-0.345,49.773
	c29.054-3.697,45.791-19.659,50.348-49.949c4.404,29.487,20.907,45.691,49.652,49.975C70.729,54.051,54.532,70.407,49.984,99.824z"
	/>
</g></g><g transform="translate(86,602) scale(0.43,0.43)"><g transform="" style="fill: rgb(246, 139, 157);">
<path style="fill-rule:evenodd;clip-rule:evenodd;" d="M49.984,99.824C45.848,69.47,28.497,53.961-0.345,49.773
	c29.054-3.697,45.791-19.659,50.348-49.949c4.404,29.487,20.907,45.691,49.652,49.975C70.729,54.051,54.532,70.407,49.984,99.824z"
	/>
</g></g><g transform="translate(258,602) scale(0.43,0.43)"><g transform="" style="fill: rgb(246, 139, 157);">
<path style="fill-rule:evenodd;clip-rule:evenodd;" d="M49.984,99.824C45.848,69.47,28.497,53.961-0.345,49.773
	c29.054-3.697,45.791-19.659,50.348-49.949c4.404,29.487,20.907,45.691,49.652,49.975C70.729,54.051,54.532,70.407,49.984,99.824z"
	/>
</g></g><g transform="translate(344,602) scale(0.43,0.43)"><g transform="" style="fill: rgb(246, 139, 157);">
<path style="fill-rule:evenodd;clip-rule:evenodd;" d="M49.984,99.824C45.848,69.47,28.497,53.961-0.345,49.773
	c29.054-3.697,45.791-19.659,50.348-49.949c4.404,29.487,20.907,45.691,49.652,49.975C70.729,54.051,54.532,70.407,49.984,99.824z"
	/>
</g></g><g transform="translate(387,602) scale(0.43,0.43)"><g transform="" style="fill: rgb(246, 139, 157);">
<path style="fill-rule:evenodd;clip-rule:evenodd;" d="M49.984,99.824C45.848,69.47,28.497,53.961-0.345,49.773
	c29.054-3.697,45.791-19.659,50.348-49.949c4.404,29.487,20.907,45.691,49.652,49.975C70.729,54.051,54.532,70.407,49.984,99.824z"
	/>
</g></g><g transform="translate(516,602) scale(0.43,0.43)"><g transform="" style="fill: rgb(246, 139, 157);">
<path style="fill-rule:evenodd;clip-rule:evenodd;" d="M49.984,99.824C45.848,69.47,28.497,53.961-0.345,49.773
	c29.054-3.697,45.791-19.659,50.348-49.949c4.404,29.487,20.907,45.691,49.652,49.975C70.729,54.051,54.532,70.407,49.984,99.824z"
	/>
</g></g><g transform="translate(559,602) scale(0.43,0.43)"><g transform="" style="fill: rgb(246, 139, 157);">
<path style="fill-rule:evenodd;clip-rule:evenodd;" d="M49.984,99.824C45.848,69.47,28.497,53.961-0.345,49.773
	c29.054-3.697,45.791-19.659,50.348-49.949c4.404,29.487,20.907,45.691,49.652,49.975C70.729,54.051,54.532,70.407,49.984,99.824z"
	/>
</g></g><g transform="translate(731,602) scale(0.43,0.43)"><g transform="" style="fill: rgb(246, 139, 157);">
<path style="fill-rule:evenodd;clip-rule:evenodd;" d="M49.984,99.824C45.848,69.47,28.497,53.961-0.345,49.773
	c29.054-3.697,45.791-19.659,50.348-49.949c4.404,29.487,20.907,45.691,49.652,49.975C70.729,54.051,54.532,70.407,49.984,99.824z"
	/>
</g></g><g transform="translate(817,602) scale(0.43,0.43)"><g transform="" style="fill: rgb(246, 139, 157);">
<path style="fill-rule:evenodd;clip-rule:evenodd;" d="M49.984,99.824C45.848,69.47,28.497,53.961-0.345,49.773
	c29.054-3.697,45.791-19.659,50.348-49.949c4.404,29.487,20.907,45.691,49.652,49.975C70.729,54.051,54.532,70.407,49.984,99.824z"
	/>
</g></g><g transform="translate(946,602) scale(0.43,0.43)"><g transform="" style="fill: rgb(246, 139, 157);">
<path style="fill-rule:evenodd;clip-rule:evenodd;" d="M49.984,99.824C45.848,69.47,28.497,53.961-0.345,49.773
	c29.054-3.697,45.791-19.659,50.348-49.949c4.404,29.487,20.907,45.691,49.652,49.975C70.729,54.051,54.532,70.407,49.984,99.824z"
	/>
</g></g><g transform="translate(989,602) scale(0.43,0.43)"><g transform="" style="fill: rgb(246, 139, 157);">
<path style="fill-rule:evenodd;clip-rule:evenodd;" d="M49.984,99.824C45.848,69.47,28.497,53.961-0.345,49.773
	c29.054-3.697,45.791-19.659,50.348-49.949c4.404,29.487,20.907,45.691,49.652,49.975C70.729,54.051,54.532,70.407,49.984,99.824z"
	/>
</g></g><g transform="translate(1032,602) scale(0.43,0.43)"><g transform="" style="fill: rgb(246, 139, 157);">
<path style="fill-rule:evenodd;clip-rule:evenodd;" d="M49.984,99.824C45.848,69.47,28.497,53.961-0.345,49.773
	c29.054-3.697,45.791-19.659,50.348-49.949c4.404,29.487,20.907,45.691,49.652,49.975C70.729,54.051,54.532,70.407,49.984,99.824z"
	/>
</g></g><g transform="translate(43,645) scale(0.43,0.43)"><g transform="" style="fill: rgb(246, 139, 157);">
<path style="fill-rule:evenodd;clip-rule:evenodd;" d="M49.984,99.824C45.848,69.47,28.497,53.961-0.345,49.773
	c29.054-3.697,45.791-19.659,50.348-49.949c4.404,29.487,20.907,45.691,49.652,49.975C70.729,54.051,54.532,70.407,49.984,99.824z"
	/>
</g></g><g transform="translate(129,645) scale(0.43,0.43)"><g transform="" style="fill: rgb(246, 139, 157);">
<path style="fill-rule:evenodd;clip-rule:evenodd;" d="M49.984,99.824C45.848,69.47,28.497,53.961-0.345,49.773
	c29.054-3.697,45.791-19.659,50.348-49.949c4.404,29.487,20.907,45.691,49.652,49.975C70.729,54.051,54.532,70.407,49.984,99.824z"
	/>
</g></g><g transform="translate(215,645) scale(0.43,0.43)"><g transform="" style="fill: rgb(246, 139, 157);">
<path style="fill-rule:evenodd;clip-rule:evenodd;" d="M49.984,99.824C45.848,69.47,28.497,53.961-0.345,49.773
	c29.054-3.697,45.791-19.659,50.348-49.949c4.404,29.487,20.907,45.691,49.652,49.975C70.729,54.051,54.532,70.407,49.984,99.824z"
	/>
</g></g><g transform="translate(301,645) scale(0.43,0.43)"><g transform="" style="fill: rgb(246, 139, 157);">
<path style="fill-rule:evenodd;clip-rule:evenodd;" d="M49.984,99.824C45.848,69.47,28.497,53.961-0.345,49.773
	c29.054-3.697,45.791-19.659,50.348-49.949c4.404,29.487,20.907,45.691,49.652,49.975C70.729,54.051,54.532,70.407,49.984,99.824z"
	/>
</g></g><g transform="translate(430,645) scale(0.43,0.43)"><g transform="" style="fill: rgb(246, 139, 157);">
<path style="fill-rule:evenodd;clip-rule:evenodd;" d="M49.984,99.824C45.848,69.47,28.497,53.961-0.345,49.773
	c29.054-3.697,45.791-19.659,50.348-49.949c4.404,29.487,20.907,45.691,49.652,49.975C70.729,54.051,54.532,70.407,49.984,99.824z"
	/>
</g></g><g transform="translate(473,645) scale(0.43,0.43)"><g transform="" style="fill: rgb(246, 139, 157);">
<path style="fill-rule:evenodd;clip-rule:evenodd;" d="M49.984,99.824C45.848,69.47,28.497,53.961-0.345,49.773
	c29.054-3.697,45.791-19.659,50.348-49.949c4.404,29.487,20.907,45.691,49.652,49.975C70.729,54.051,54.532,70.407,49.984,99.824z"
	/>
</g></g><g transform="translate(559,645) scale(0.43,0.43)"><g transform="" style="fill: rgb(246, 139, 157);">
<path style="fill-rule:evenodd;clip-rule:evenodd;" d="M49.984,99.824C45.848,69.47,28.497,53.961-0.345,49.773
	c29.054-3.697,45.791-19.659,50.348-49.949c4.404,29.487,20.907,45.691,49.652,49.975C70.729,54.051,54.532,70.407,49.984,99.824z"
	/>
</g></g><g transform="translate(645,645) scale(0.43,0.43)"><g transform="" style="fill: rgb(246, 139, 157);">
<path style="fill-rule:evenodd;clip-rule:evenodd;" d="M49.984,99.824C45.848,69.47,28.497,53.961-0.345,49.773
	c29.054-3.697,45.791-19.659,50.348-49.949c4.404,29.487,20.907,45.691,49.652,49.975C70.729,54.051,54.532,70.407,49.984,99.824z"
	/>
</g></g><g transform="translate(731,645) scale(0.43,0.43)"><g transform="" style="fill: rgb(246, 139, 157);">
<path style="fill-rule:evenodd;clip-rule:evenodd;" d="M49.984,99.824C45.848,69.47,28.497,53.961-0.345,49.773
	c29.054-3.697,45.791-19.659,50.348-49.949c4.404,29.487,20.907,45.691,49.652,49.975C70.729,54.051,54.532,70.407,49.984,99.824z"
	/>
</g></g><g transform="translate(774,645) scale(0.43,0.43)"><g transform="" style="fill: rgb(246, 139, 157);">
<path style="fill-rule:evenodd;clip-rule:evenodd;" d="M49.984,99.824C45.848,69.47,28.497,53.961-0.345,49.773
	c29.054-3.697,45.791-19.659,50.348-49.949c4.404,29.487,20.907,45.691,49.652,49.975C70.729,54.051,54.532,70.407,49.984,99.824z"
	/>
</g></g><g transform="translate(860,645) scale(0.43,0.43)"><g transform="" style="fill: rgb(246, 139, 157);">
<path style="fill-rule:evenodd;clip-rule:evenodd;" d="M49.984,99.824C45.848,69.47,28.497,53.961-0.345,49.773
	c29.054-3.697,45.791-19.659,50.348-49.949c4.404,29.487,20.907,45.691,49.652,49.975C70.729,54.051,54.532,70.407,49.984,99.824z"
	/>
</g></g><g transform="translate(989,645) scale(0.43,0.43)"><g transform="" style="fill: rgb(246, 139, 157);">
<path style="fill-rule:evenodd;clip-rule:evenodd;" d="M49.984,99.824C45.848,69.47,28.497,53.961-0.345,49.773
	c29.054-3.697,45.791-19.659,50.348-49.949c4.404,29.487,20.907,45.691,49.652,49.975C70.729,54.051,54.532,70.407,49.984,99.824z"
	/>
</g></g><g transform="translate(0,688) scale(0.43,0.43)"><g transform="" style="fill: rgb(246, 139, 157);">
<path style="fill-rule:evenodd;clip-rule:evenodd;" d="M49.984,99.824C45.848,69.47,28.497,53.961-0.345,49.773
	c29.054-3.697,45.791-19.659,50.348-49.949c4.404,29.487,20.907,45.691,49.652,49.975C70.729,54.051,54.532,70.407,49.984,99.824z"
	/>
</g></g><g transform="translate(86,688) scale(0.43,0.43)"><g transform="" style="fill: rgb(246, 139, 157);">
<path style="fill-rule:evenodd;clip-rule:evenodd;" d="M49.984,99.824C45.848,69.47,28.497,53.961-0.345,49.773
	c29.054-3.697,45.791-19.659,50.348-49.949c4.404,29.487,20.907,45.691,49.652,49.975C70.729,54.051,54.532,70.407,49.984,99.824z"
	/>
</g></g><g transform="translate(172,688) scale(0.43,0.43)"><g transform="" style="fill: rgb(246, 139, 157);">
<path style="fill-rule:evenodd;clip-rule:evenodd;" d="M49.984,99.824C45.848,69.47,28.497,53.961-0.345,49.773
	c29.054-3.697,45.791-19.659,50.348-49.949c4.404,29.487,20.907,45.691,49.652,49.975C70.729,54.051,54.532,70.407,49.984,99.824z"
	/>
</g></g><g transform="translate(215,688) scale(0.43,0.43)"><g transform="" style="fill: rgb(246, 139, 157);">
<path style="fill-rule:evenodd;clip-rule:evenodd;" d="M49.984,99.824C45.848,69.47,28.497,53.961-0.345,49.773
	c29.054-3.697,45.791-19.659,50.348-49.949c4.404,29.487,20.907,45.691,49.652,49.975C70.729,54.051,54.532,70.407,49.984,99.824z"
	/>
</g></g><g transform="translate(258,688) scale(0.43,0.43)"><g transform="" style="fill: rgb(246, 139, 157);">
<path style="fill-rule:evenodd;clip-rule:evenodd;" d="M49.984,99.824C45.848,69.47,28.497,53.961-0.345,49.773
	c29.054-3.697,45.791-19.659,50.348-49.949c4.404,29.487,20.907,45.691,49.652,49.975C70.729,54.051,54.532,70.407,49.984,99.824z"
	/>
</g></g><g transform="translate(301,688) scale(0.43,0.43)"><g transform="" style="fill: rgb(246, 139, 157);">
<path style="fill-rule:evenodd;clip-rule:evenodd;" d="M49.984,99.824C45.848,69.47,28.497,53.961-0.345,49.773
	c29.054-3.697,45.791-19.659,50.348-49.949c4.404,29.487,20.907,45.691,49.652,49.975C70.729,54.051,54.532,70.407,49.984,99.824z"
	/>
</g></g><g transform="translate(387,688) scale(0.43,0.43)"><g transform="" style="fill: rgb(246, 139, 157);">
<path style="fill-rule:evenodd;clip-rule:evenodd;" d="M49.984,99.824C45.848,69.47,28.497,53.961-0.345,49.773
	c29.054-3.697,45.791-19.659,50.348-49.949c4.404,29.487,20.907,45.691,49.652,49.975C70.729,54.051,54.532,70.407,49.984,99.824z"
	/>
</g></g><g transform="translate(430,688) scale(0.43,0.43)"><g transform="" style="fill: rgb(246, 139, 157);">
<path style="fill-rule:evenodd;clip-rule:evenodd;" d="M49.984,99.824C45.848,69.47,28.497,53.961-0.345,49.773
	c29.054-3.697,45.791-19.659,50.348-49.949c4.404,29.487,20.907,45.691,49.652,49.975C70.729,54.051,54.532,70.407,49.984,99.824z"
	/>
</g></g><g transform="translate(473,688) scale(0.43,0.43)"><g transform="" style="fill: rgb(246, 139, 157);">
<path style="fill-rule:evenodd;clip-rule:evenodd;" d="M49.984,99.824C45.848,69.47,28.497,53.961-0.345,49.773
	c29.054-3.697,45.791-19.659,50.348-49.949c4.404,29.487,20.907,45.691,49.652,49.975C70.729,54.051,54.532,70.407,49.984,99.824z"
	/>
</g></g><g transform="translate(516,688) scale(0.43,0.43)"><g transform="" style="fill: rgb(246, 139, 157);">
<path style="fill-rule:evenodd;clip-rule:evenodd;" d="M49.984,99.824C45.848,69.47,28.497,53.961-0.345,49.773
	c29.054-3.697,45.791-19.659,50.348-49.949c4.404,29.487,20.907,45.691,49.652,49.975C70.729,54.051,54.532,70.407,49.984,99.824z"
	/>
</g></g><g transform="translate(559,688) scale(0.43,0.43)"><g transform="" style="fill: rgb(246, 139, 157);">
<path style="fill-rule:evenodd;clip-rule:evenodd;" d="M49.984,99.824C45.848,69.47,28.497,53.961-0.345,49.773
	c29.054-3.697,45.791-19.659,50.348-49.949c4.404,29.487,20.907,45.691,49.652,49.975C70.729,54.051,54.532,70.407,49.984,99.824z"
	/>
</g></g><g transform="translate(688,688) scale(0.43,0.43)"><g transform="" style="fill: rgb(246, 139, 157);">
<path style="fill-rule:evenodd;clip-rule:evenodd;" d="M49.984,99.824C45.848,69.47,28.497,53.961-0.345,49.773
	c29.054-3.697,45.791-19.659,50.348-49.949c4.404,29.487,20.907,45.691,49.652,49.975C70.729,54.051,54.532,70.407,49.984,99.824z"
	/>
</g></g><g transform="translate(731,688) scale(0.43,0.43)"><g transform="" style="fill: rgb(246, 139, 157);">
<path style="fill-rule:evenodd;clip-rule:evenodd;" d="M49.984,99.824C45.848,69.47,28.497,53.961-0.345,49.773
	c29.054-3.697,45.791-19.659,50.348-49.949c4.404,29.487,20.907,45.691,49.652,49.975C70.729,54.051,54.532,70.407,49.984,99.824z"
	/>
</g></g><g transform="translate(774,688) scale(0.43,0.43)"><g transform="" style="fill: rgb(246, 139, 157);">
<path style="fill-rule:evenodd;clip-rule:evenodd;" d="M49.984,99.824C45.848,69.47,28.497,53.961-0.345,49.773
	c29.054-3.697,45.791-19.659,50.348-49.949c4.404,29.487,20.907,45.691,49.652,49.975C70.729,54.051,54.532,70.407,49.984,99.824z"
	/>
</g></g><g transform="translate(817,688) scale(0.43,0.43)"><g transform="" style="fill: rgb(246, 139, 157);">
<path style="fill-rule:evenodd;clip-rule:evenodd;" d="M49.984,99.824C45.848,69.47,28.497,53.961-0.345,49.773
	c29.054-3.697,45.791-19.659,50.348-49.949c4.404,29.487,20.907,45.691,49.652,49.975C70.729,54.051,54.532,70.407,49.984,99.824z"
	/>
</g></g><g transform="translate(860,688) scale(0.43,0.43)"><g transform="" style="fill: rgb(246, 139, 157);">
<path style="fill-rule:evenodd;clip-rule:evenodd;" d="M49.984,99.824C45.848,69.47,28.497,53.961-0.345,49.773
	c29.054-3.697,45.791-19.659,50.348-49.949c4.404,29.487,20.907,45.691,49.652,49.975C70.729,54.051,54.532,70.407,49.984,99.824z"
	/>
</g></g><g transform="translate(903,688) scale(0.43,0.43)"><g transform="" style="fill: rgb(246, 139, 157);">
<path style="fill-rule:evenodd;clip-rule:evenodd;" d="M49.984,99.824C45.848,69.47,28.497,53.961-0.345,49.773
	c29.054-3.697,45.791-19.659,50.348-49.949c4.404,29.487,20.907,45.691,49.652,49.975C70.729,54.051,54.532,70.407,49.984,99.824z"
	/>
</g></g><g transform="translate(344,731) scale(0.43,0.43)"><g transform="" style="fill: rgb(246, 139, 157);">
<path style="fill-rule:evenodd;clip-rule:evenodd;" d="M49.984,99.824C45.848,69.47,28.497,53.961-0.345,49.773
	c29.054-3.697,45.791-19.659,50.348-49.949c4.404,29.487,20.907,45.691,49.652,49.975C70.729,54.051,54.532,70.407,49.984,99.824z"
	/>
</g></g><g transform="translate(430,731) scale(0.43,0.43)"><g transform="" style="fill: rgb(246, 139, 157);">
<path style="fill-rule:evenodd;clip-rule:evenodd;" d="M49.984,99.824C45.848,69.47,28.497,53.961-0.345,49.773
	c29.054-3.697,45.791-19.659,50.348-49.949c4.404,29.487,20.907,45.691,49.652,49.975C70.729,54.051,54.532,70.407,49.984,99.824z"
	/>
</g></g><g transform="translate(516,731) scale(0.43,0.43)"><g transform="" style="fill: rgb(246, 139, 157);">
<path style="fill-rule:evenodd;clip-rule:evenodd;" d="M49.984,99.824C45.848,69.47,28.497,53.961-0.345,49.773
	c29.054-3.697,45.791-19.659,50.348-49.949c4.404,29.487,20.907,45.691,49.652,49.975C70.729,54.051,54.532,70.407,49.984,99.824z"
	/>
</g></g><g transform="translate(645,731) scale(0.43,0.43)"><g transform="" style="fill: rgb(246, 139, 157);">
<path style="fill-rule:evenodd;clip-rule:evenodd;" d="M49.984,99.824C45.848,69.47,28.497,53.961-0.345,49.773
	c29.054-3.697,45.791-19.659,50.348-49.949c4.404,29.487,20.907,45.691,49.652,49.975C70.729,54.051,54.532,70.407,49.984,99.824z"
	/>
</g></g><g transform="translate(688,731) scale(0.43,0.43)"><g transform="" style="fill: rgb(246, 139, 157);">
<path style="fill-rule:evenodd;clip-rule:evenodd;" d="M49.984,99.824C45.848,69.47,28.497,53.961-0.345,49.773
	c29.054-3.697,45.791-19.659,50.348-49.949c4.404,29.487,20.907,45.691,49.652,49.975C70.729,54.051,54.532,70.407,49.984,99.824z"
	/>
</g></g><g transform="translate(860,731) scale(0.43,0.43)"><g transform="" style="fill: rgb(246, 139, 157);">
<path style="fill-rule:evenodd;clip-rule:evenodd;" d="M49.984,99.824C45.848,69.47,28.497,53.961-0.345,49.773
	c29.054-3.697,45.791-19.659,50.348-49.949c4.404,29.487,20.907,45.691,49.652,49.975C70.729,54.051,54.532,70.407,49.984,99.824z"
	/>
</g></g><g transform="translate(903,731) scale(0.43,0.43)"><g transform="" style="fill: rgb(246, 139, 157);">
<path style="fill-rule:evenodd;clip-rule:evenodd;" d="M49.984,99.824C45.848,69.47,28.497,53.961-0.345,49.773
	c29.054-3.697,45.791-19.659,50.348-49.949c4.404,29.487,20.907,45.691,49.652,49.975C70.729,54.051,54.532,70.407,49.984,99.824z"
	/>
</g></g><g transform="translate(989,731) scale(0.43,0.43)"><g transform="" style="fill: rgb(246, 139, 157);">
<path style="fill-rule:evenodd;clip-rule:evenodd;" d="M49.984,99.824C45.848,69.47,28.497,53.961-0.345,49.773
	c29.054-3.697,45.791-19.659,50.348-49.949c4.404,29.487,20.907,45.691,49.652,49.975C70.729,54.051,54.532,70.407,49.984,99.824z"
	/>
</g></g><g transform="translate(1032,731) scale(0.43,0.43)"><g transform="" style="fill: rgb(246, 139, 157);">
<path style="fill-rule:evenodd;clip-rule:evenodd;" d="M49.984,99.824C45.848,69.47,28.497,53.961-0.345,49.773
	c29.054-3.697,45.791-19.659,50.348-49.949c4.404,29.487,20.907,45.691,49.652,49.975C70.729,54.051,54.532,70.407,49.984,99.824z"
	/>
</g></g><g transform="translate(430,774) scale(0.43,0.43)"><g transform="" style="fill: rgb(246, 139, 157);">
<path style="fill-rule:evenodd;clip-rule:evenodd;" d="M49.984,99.824C45.848,69.47,28.497,53.961-0.345,49.773
	c29.054-3.697,45.791-19.659,50.348-49.949c4.404,29.487,20.907,45.691,49.652,49.975C70.729,54.051,54.532,70.407,49.984,99.824z"
	/>
</g></g><g transform="translate(559,774) scale(0.43,0.43)"><g transform="" style="fill: rgb(246, 139, 157);">
<path style="fill-rule:evenodd;clip-rule:evenodd;" d="M49.984,99.824C45.848,69.47,28.497,53.961-0.345,49.773
	c29.054-3.697,45.791-19.659,50.348-49.949c4.404,29.487,20.907,45.691,49.652,49.975C70.729,54.051,54.532,70.407,49.984,99.824z"
	/>
</g></g><g transform="translate(645,774) scale(0.43,0.43)"><g transform="" style="fill: rgb(246, 139, 157);">
<path style="fill-rule:evenodd;clip-rule:evenodd;" d="M49.984,99.824C45.848,69.47,28.497,53.961-0.345,49.773
	c29.054-3.697,45.791-19.659,50.348-49.949c4.404,29.487,20.907,45.691,49.652,49.975C70.729,54.051,54.532,70.407,49.984,99.824z"
	/>
</g></g><g transform="translate(688,774) scale(0.43,0.43)"><g transform="" style="fill: rgb(246, 139, 157);">
<path style="fill-rule:evenodd;clip-rule:evenodd;" d="M49.984,99.824C45.848,69.47,28.497,53.961-0.345,49.773
	c29.054-3.697,45.791-19.659,50.348-49.949c4.404,29.487,20.907,45.691,49.652,49.975C70.729,54.051,54.532,70.407,49.984,99.824z"
	/>
</g></g><g transform="translate(774,774) scale(0.43,0.43)"><g transform="" style="fill: rgb(246, 139, 157);">
<path style="fill-rule:evenodd;clip-rule:evenodd;" d="M49.984,99.824C45.848,69.47,28.497,53.961-0.345,49.773
	c29.054-3.697,45.791-19.659,50.348-49.949c4.404,29.487,20.907,45.691,49.652,49.975C70.729,54.051,54.532,70.407,49.984,99.824z"
	/>
</g></g><g transform="translate(860,774) scale(0.43,0.43)"><g transform="" style="fill: rgb(246, 139, 157);">
<path style="fill-rule:evenodd;clip-rule:evenodd;" d="M49.984,99.824C45.848,69.47,28.497,53.961-0.345,49.773
	c29.054-3.697,45.791-19.659,50.348-49.949c4.404,29.487,20.907,45.691,49.652,49.975C70.729,54.051,54.532,70.407,49.984,99.824z"
	/>
</g></g><g transform="translate(903,774) scale(0.43,0.43)"><g transform="" style="fill: rgb(246, 139, 157);">
<path style="fill-rule:evenodd;clip-rule:evenodd;" d="M49.984,99.824C45.848,69.47,28.497,53.961-0.345,49.773
	c29.054-3.697,45.791-19.659,50.348-49.949c4.404,29.487,20.907,45.691,49.652,49.975C70.729,54.051,54.532,70.407,49.984,99.824z"
	/>
</g></g><g transform="translate(989,774) scale(0.43,0.43)"><g transform="" style="fill: rgb(246, 139, 157);">
<path style="fill-rule:evenodd;clip-rule:evenodd;" d="M49.984,99.824C45.848,69.47,28.497,53.961-0.345,49.773
	c29.054-3.697,45.791-19.659,50.348-49.949c4.404,29.487,20.907,45.691,49.652,49.975C70.729,54.051,54.532,70.407,49.984,99.824z"
	/>
</g></g><g transform="translate(1032,774) scale(0.43,0.43)"><g transform="" style="fill: rgb(246, 139, 157);">
<path style="fill-rule:evenodd;clip-rule:evenodd;" d="M49.984,99.824C45.848,69.47,28.497,53.961-0.345,49.773
	c29.054-3.697,45.791-19.659,50.348-49.949c4.404,29.487,20.907,45.691,49.652,49.975C70.729,54.051,54.532,70.407,49.984,99.824z"
	/>
</g></g><g transform="translate(430,817) scale(0.43,0.43)"><g transform="" style="fill: rgb(246, 139, 157);">
<path style="fill-rule:evenodd;clip-rule:evenodd;" d="M49.984,99.824C45.848,69.47,28.497,53.961-0.345,49.773
	c29.054-3.697,45.791-19.659,50.348-49.949c4.404,29.487,20.907,45.691,49.652,49.975C70.729,54.051,54.532,70.407,49.984,99.824z"
	/>
</g></g><g transform="translate(559,817) scale(0.43,0.43)"><g transform="" style="fill: rgb(246, 139, 157);">
<path style="fill-rule:evenodd;clip-rule:evenodd;" d="M49.984,99.824C45.848,69.47,28.497,53.961-0.345,49.773
	c29.054-3.697,45.791-19.659,50.348-49.949c4.404,29.487,20.907,45.691,49.652,49.975C70.729,54.051,54.532,70.407,49.984,99.824z"
	/>
</g></g><g transform="translate(602,817) scale(0.43,0.43)"><g transform="" style="fill: rgb(246, 139, 157);">
<path style="fill-rule:evenodd;clip-rule:evenodd;" d="M49.984,99.824C45.848,69.47,28.497,53.961-0.345,49.773
	c29.054-3.697,45.791-19.659,50.348-49.949c4.404,29.487,20.907,45.691,49.652,49.975C70.729,54.051,54.532,70.407,49.984,99.824z"
	/>
</g></g><g transform="translate(688,817) scale(0.43,0.43)"><g transform="" style="fill: rgb(246, 139, 157);">
<path style="fill-rule:evenodd;clip-rule:evenodd;" d="M49.984,99.824C45.848,69.47,28.497,53.961-0.345,49.773
	c29.054-3.697,45.791-19.659,50.348-49.949c4.404,29.487,20.907,45.691,49.652,49.975C70.729,54.051,54.532,70.407,49.984,99.824z"
	/>
</g></g><g transform="translate(860,817) scale(0.43,0.43)"><g transform="" style="fill: rgb(246, 139, 157);">
<path style="fill-rule:evenodd;clip-rule:evenodd;" d="M49.984,99.824C45.848,69.47,28.497,53.961-0.345,49.773
	c29.054-3.697,45.791-19.659,50.348-49.949c4.404,29.487,20.907,45.691,49.652,49.975C70.729,54.051,54.532,70.407,49.984,99.824z"
	/>
</g></g><g transform="translate(903,817) scale(0.43,0.43)"><g transform="" style="fill: rgb(246, 139, 157);">
<path style="fill-rule:evenodd;clip-rule:evenodd;" d="M49.984,99.824C45.848,69.47,28.497,53.961-0.345,49.773
	c29.054-3.697,45.791-19.659,50.348-49.949c4.404,29.487,20.907,45.691,49.652,49.975C70.729,54.051,54.532,70.407,49.984,99.824z"
	/>
</g></g><g transform="translate(989,817) scale(0.43,0.43)"><g transform="" style="fill: rgb(246, 139, 157);">
<path style="fill-rule:evenodd;clip-rule:evenodd;" d="M49.984,99.824C45.848,69.47,28.497,53.961-0.345,49.773
	c29.054-3.697,45.791-19.659,50.348-49.949c4.404,29.487,20.907,45.691,49.652,49.975C70.729,54.051,54.532,70.407,49.984,99.824z"
	/>
</g></g><g transform="translate(1032,817) scale(0.43,0.43)"><g transform="" style="fill: rgb(246, 139, 157);">
<path style="fill-rule:evenodd;clip-rule:evenodd;" d="M49.984,99.824C45.848,69.47,28.497,53.961-0.345,49.773
	c29.054-3.697,45.791-19.659,50.348-49.949c4.404,29.487,20.907,45.691,49.652,49.975C70.729,54.051,54.532,70.407,49.984,99.824z"
	/>
</g></g><g transform="translate(344,860) scale(0.43,0.43)"><g transform="" style="fill: rgb(246, 139, 157);">
<path style="fill-rule:evenodd;clip-rule:evenodd;" d="M49.984,99.824C45.848,69.47,28.497,53.961-0.345,49.773
	c29.054-3.697,45.791-19.659,50.348-49.949c4.404,29.487,20.907,45.691,49.652,49.975C70.729,54.051,54.532,70.407,49.984,99.824z"
	/>
</g></g><g transform="translate(430,860) scale(0.43,0.43)"><g transform="" style="fill: rgb(246, 139, 157);">
<path style="fill-rule:evenodd;clip-rule:evenodd;" d="M49.984,99.824C45.848,69.47,28.497,53.961-0.345,49.773
	c29.054-3.697,45.791-19.659,50.348-49.949c4.404,29.487,20.907,45.691,49.652,49.975C70.729,54.051,54.532,70.407,49.984,99.824z"
	/>
</g></g><g transform="translate(559,860) scale(0.43,0.43)"><g transform="" style="fill: rgb(246, 139, 157);">
<path style="fill-rule:evenodd;clip-rule:evenodd;" d="M49.984,99.824C45.848,69.47,28.497,53.961-0.345,49.773
	c29.054-3.697,45.791-19.659,50.348-49.949c4.404,29.487,20.907,45.691,49.652,49.975C70.729,54.051,54.532,70.407,49.984,99.824z"
	/>
</g></g><g transform="translate(688,860) scale(0.43,0.43)"><g transform="" style="fill: rgb(246, 139, 157);">
<path style="fill-rule:evenodd;clip-rule:evenodd;" d="M49.984,99.824C45.848,69.47,28.497,53.961-0.345,49.773
	c29.054-3.697,45.791-19.659,50.348-49.949c4.404,29.487,20.907,45.691,49.652,49.975C70.729,54.051,54.532,70.407,49.984,99.824z"
	/>
</g></g><g transform="translate(731,860) scale(0.43,0.43)"><g transform="" style="fill: rgb(246, 139, 157);">
<path style="fill-rule:evenodd;clip-rule:evenodd;" d="M49.984,99.824C45.848,69.47,28.497,53.961-0.345,49.773
	c29.054-3.697,45.791-19.659,50.348-49.949c4.404,29.487,20.907,45.691,49.652,49.975C70.729,54.051,54.532,70.407,49.984,99.824z"
	/>
</g></g><g transform="translate(774,860) scale(0.43,0.43)"><g transform="" style="fill: rgb(246, 139, 157);">
<path style="fill-rule:evenodd;clip-rule:evenodd;" d="M49.984,99.824C45.848,69.47,28.497,53.961-0.345,49.773
	c29.054-3.697,45.791-19.659,50.348-49.949c4.404,29.487,20.907,45.691,49.652,49.975C70.729,54.051,54.532,70.407,49.984,99.824z"
	/>
</g></g><g transform="translate(817,860) scale(0.43,0.43)"><g transform="" style="fill: rgb(246, 139, 157);">
<path style="fill-rule:evenodd;clip-rule:evenodd;" d="M49.984,99.824C45.848,69.47,28.497,53.961-0.345,49.773
	c29.054-3.697,45.791-19.659,50.348-49.949c4.404,29.487,20.907,45.691,49.652,49.975C70.729,54.051,54.532,70.407,49.984,99.824z"
	/>
</g></g><g transform="translate(860,860) scale(0.43,0.43)"><g transform="" style="fill: rgb(246, 139, 157);">
<path style="fill-rule:evenodd;clip-rule:evenodd;" d="M49.984,99.824C45.848,69.47,28.497,53.961-0.345,49.773
	c29.054-3.697,45.791-19.659,50.348-49.949c4.404,29.487,20.907,45.691,49.652,49.975C70.729,54.051,54.532,70.407,49.984,99.824z"
	/>
</g></g><g transform="translate(903,860) scale(0.43,0.43)"><g transform="" style="fill: rgb(246, 139, 157);">
<path style="fill-rule:evenodd;clip-rule:evenodd;" d="M49.984,99.824C45.848,69.47,28.497,53.961-0.345,49.773
	c29.054-3.697,45.791-19.659,50.348-49.949c4.404,29.487,20.907,45.691,49.652,49.975C70.729,54.051,54.532,70.407,49.984,99.824z"
	/>
</g></g><g transform="translate(387,903) scale(0.43,0.43)"><g transform="" style="fill: rgb(246, 139, 157);">
<path style="fill-rule:evenodd;clip-rule:evenodd;" d="M49.984,99.824C45.848,69.47,28.497,53.961-0.345,49.773
	c29.054-3.697,45.791-19.659,50.348-49.949c4.404,29.487,20.907,45.691,49.652,49.975C70.729,54.051,54.532,70.407,49.984,99.824z"
	/>
</g></g><g transform="translate(430,903) scale(0.43,0.43)"><g transform="" style="fill: rgb(246, 139, 157);">
<path style="fill-rule:evenodd;clip-rule:evenodd;" d="M49.984,99.824C45.848,69.47,28.497,53.961-0.345,49.773
	c29.054-3.697,45.791-19.659,50.348-49.949c4.404,29.487,20.907,45.691,49.652,49.975C70.729,54.051,54.532,70.407,49.984,99.824z"
	/>
</g></g><g transform="translate(516,903) scale(0.43,0.43)"><g transform="" style="fill: rgb(246, 139, 157);">
<path style="fill-rule:evenodd;clip-rule:evenodd;" d="M49.984,99.824C45.848,69.47,28.497,53.961-0.345,49.773
	c29.054-3.697,45.791-19.659,50.348-49.949c4.404,29.487,20.907,45.691,49.652,49.975C70.729,54.051,54.532,70.407,49.984,99.824z"
	/>
</g></g><g transform="translate(559,903) scale(0.43,0.43)"><g transform="" style="fill: rgb(246, 139, 157);">
<path style="fill-rule:evenodd;clip-rule:evenodd;" d="M49.984,99.824C45.848,69.47,28.497,53.961-0.345,49.773
	c29.054-3.697,45.791-19.659,50.348-49.949c4.404,29.487,20.907,45.691,49.652,49.975C70.729,54.051,54.532,70.407,49.984,99.824z"
	/>
</g></g><g transform="translate(602,903) scale(0.43,0.43)"><g transform="" style="fill: rgb(246, 139, 157);">
<path style="fill-rule:evenodd;clip-rule:evenodd;" d="M49.984,99.824C45.848,69.47,28.497,53.961-0.345,49.773
	c29.054-3.697,45.791-19.659,50.348-49.949c4.404,29.487,20.907,45.691,49.652,49.975C70.729,54.051,54.532,70.407,49.984,99.824z"
	/>
</g></g><g transform="translate(645,903) scale(0.43,0.43)"><g transform="" style="fill: rgb(246, 139, 157);">
<path style="fill-rule:evenodd;clip-rule:evenodd;" d="M49.984,99.824C45.848,69.47,28.497,53.961-0.345,49.773
	c29.054-3.697,45.791-19.659,50.348-49.949c4.404,29.487,20.907,45.691,49.652,49.975C70.729,54.051,54.532,70.407,49.984,99.824z"
	/>
</g></g><g transform="translate(688,903) scale(0.43,0.43)"><g transform="" style="fill: rgb(246, 139, 157);">
<path style="fill-rule:evenodd;clip-rule:evenodd;" d="M49.984,99.824C45.848,69.47,28.497,53.961-0.345,49.773
	c29.054-3.697,45.791-19.659,50.348-49.949c4.404,29.487,20.907,45.691,49.652,49.975C70.729,54.051,54.532,70.407,49.984,99.824z"
	/>
</g></g><g transform="translate(817,903) scale(0.43,0.43)"><g transform="" style="fill: rgb(246, 139, 157);">
<path style="fill-rule:evenodd;clip-rule:evenodd;" d="M49.984,99.824C45.848,69.47,28.497,53.961-0.345,49.773
	c29.054-3.697,45.791-19.659,50.348-49.949c4.404,29.487,20.907,45.691,49.652,49.975C70.729,54.051,54.532,70.407,49.984,99.824z"
	/>
</g></g><g transform="translate(860,903) scale(0.43,0.43)"><g transform="" style="fill: rgb(246, 139, 157);">
<path style="fill-rule:evenodd;clip-rule:evenodd;" d="M49.984,99.824C45.848,69.47,28.497,53.961-0.345,49.773
	c29.054-3.697,45.791-19.659,50.348-49.949c4.404,29.487,20.907,45.691,49.652,49.975C70.729,54.051,54.532,70.407,49.984,99.824z"
	/>
</g></g><g transform="translate(903,903) scale(0.43,0.43)"><g transform="" style="fill: rgb(246, 139, 157);">
<path style="fill-rule:evenodd;clip-rule:evenodd;" d="M49.984,99.824C45.848,69.47,28.497,53.961-0.345,49.773
	c29.054-3.697,45.791-19.659,50.348-49.949c4.404,29.487,20.907,45.691,49.652,49.975C70.729,54.051,54.532,70.407,49.984,99.824z"
	/>
</g></g><g transform="translate(946,903) scale(0.43,0.43)"><g transform="" style="fill: rgb(246, 139, 157);">
<path style="fill-rule:evenodd;clip-rule:evenodd;" d="M49.984,99.824C45.848,69.47,28.497,53.961-0.345,49.773
	c29.054-3.697,45.791-19.659,50.348-49.949c4.404,29.487,20.907,45.691,49.652,49.975C70.729,54.051,54.532,70.407,49.984,99.824z"
	/>
</g></g><g transform="translate(344,946) scale(0.43,0.43)"><g transform="" style="fill: rgb(246, 139, 157);">
<path style="fill-rule:evenodd;clip-rule:evenodd;" d="M49.984,99.824C45.848,69.47,28.497,53.961-0.345,49.773
	c29.054-3.697,45.791-19.659,50.348-49.949c4.404,29.487,20.907,45.691,49.652,49.975C70.729,54.051,54.532,70.407,49.984,99.824z"
	/>
</g></g><g transform="translate(387,946) scale(0.43,0.43)"><g transform="" style="fill: rgb(246, 139, 157);">
<path style="fill-rule:evenodd;clip-rule:evenodd;" d="M49.984,99.824C45.848,69.47,28.497,53.961-0.345,49.773
	c29.054-3.697,45.791-19.659,50.348-49.949c4.404,29.487,20.907,45.691,49.652,49.975C70.729,54.051,54.532,70.407,49.984,99.824z"
	/>
</g></g><g transform="translate(516,946) scale(0.43,0.43)"><g transform="" style="fill: rgb(246, 139, 157);">
<path style="fill-rule:evenodd;clip-rule:evenodd;" d="M49.984,99.824C45.848,69.47,28.497,53.961-0.345,49.773
	c29.054-3.697,45.791-19.659,50.348-49.949c4.404,29.487,20.907,45.691,49.652,49.975C70.729,54.051,54.532,70.407,49.984,99.824z"
	/>
</g></g><g transform="translate(559,946) scale(0.43,0.43)"><g transform="" style="fill: rgb(246, 139, 157);">
<path style="fill-rule:evenodd;clip-rule:evenodd;" d="M49.984,99.824C45.848,69.47,28.497,53.961-0.345,49.773
	c29.054-3.697,45.791-19.659,50.348-49.949c4.404,29.487,20.907,45.691,49.652,49.975C70.729,54.051,54.532,70.407,49.984,99.824z"
	/>
</g></g><g transform="translate(645,946) scale(0.43,0.43)"><g transform="" style="fill: rgb(246, 139, 157);">
<path style="fill-rule:evenodd;clip-rule:evenodd;" d="M49.984,99.824C45.848,69.47,28.497,53.961-0.345,49.773
	c29.054-3.697,45.791-19.659,50.348-49.949c4.404,29.487,20.907,45.691,49.652,49.975C70.729,54.051,54.532,70.407,49.984,99.824z"
	/>
</g></g><g transform="translate(860,946) scale(0.43,0.43)"><g transform="" style="fill: rgb(246, 139, 157);">
<path style="fill-rule:evenodd;clip-rule:evenodd;" d="M49.984,99.824C45.848,69.47,28.497,53.961-0.345,49.773
	c29.054-3.697,45.791-19.659,50.348-49.949c4.404,29.487,20.907,45.691,49.652,49.975C70.729,54.051,54.532,70.407,49.984,99.824z"
	/>
</g></g><g transform="translate(1032,946) scale(0.43,0.43)"><g transform="" style="fill: rgb(246, 139, 157);">
<path style="fill-rule:evenodd;clip-rule:evenodd;" d="M49.984,99.824C45.848,69.47,28.497,53.961-0.345,49.773
	c29.054-3.697,45.791-19.659,50.348-49.949c4.404,29.487,20.907,45.691,49.652,49.975C70.729,54.051,54.532,70.407,49.984,99.824z"
	/>
</g></g><g transform="translate(387,989) scale(0.43,0.43)"><g transform="" style="fill: rgb(246, 139, 157);">
<path style="fill-rule:evenodd;clip-rule:evenodd;" d="M49.984,99.824C45.848,69.47,28.497,53.961-0.345,49.773
	c29.054-3.697,45.791-19.659,50.348-49.949c4.404,29.487,20.907,45.691,49.652,49.975C70.729,54.051,54.532,70.407,49.984,99.824z"
	/>
</g></g><g transform="translate(516,989) scale(0.43,0.43)"><g transform="" style="fill: rgb(246, 139, 157);">
<path style="fill-rule:evenodd;clip-rule:evenodd;" d="M49.984,99.824C45.848,69.47,28.497,53.961-0.345,49.773
	c29.054-3.697,45.791-19.659,50.348-49.949c4.404,29.487,20.907,45.691,49.652,49.975C70.729,54.051,54.532,70.407,49.984,99.824z"
	/>
</g></g><g transform="translate(559,989) scale(0.43,0.43)"><g transform="" style="fill: rgb(246, 139, 157);">
<path style="fill-rule:evenodd;clip-rule:evenodd;" d="M49.984,99.824C45.848,69.47,28.497,53.961-0.345,49.773
	c29.054-3.697,45.791-19.659,50.348-49.949c4.404,29.487,20.907,45.691,49.652,49.975C70.729,54.051,54.532,70.407,49.984,99.824z"
	/>
</g></g><g transform="translate(602,989) scale(0.43,0.43)"><g transform="" style="fill: rgb(246, 139, 157);">
<path style="fill-rule:evenodd;clip-rule:evenodd;" d="M49.984,99.824C45.848,69.47,28.497,53.961-0.345,49.773
	c29.054-3.697,45.791-19.659,50.348-49.949c4.404,29.487,20.907,45.691,49.652,49.975C70.729,54.051,54.532,70.407,49.984,99.824z"
	/>
</g></g><g transform="translate(645,989) scale(0.43,0.43)"><g transform="" style="fill: rgb(246, 139, 157);">
<path style="fill-rule:evenodd;clip-rule:evenodd;" d="M49.984,99.824C45.848,69.47,28.497,53.961-0.345,49.773
	c29.054-3.697,45.791-19.659,50.348-49.949c4.404,29.487,20.907,45.691,49.652,49.975C70.729,54.051,54.532,70.407,49.984,99.824z"
	/>
</g></g><g transform="translate(688,989) scale(0.43,0.43)"><g transform="" style="fill: rgb(246, 139, 157);">
<path style="fill-rule:evenodd;clip-rule:evenodd;" d="M49.984,99.824C45.848,69.47,28.497,53.961-0.345,49.773
	c29.054-3.697,45.791-19.659,50.348-49.949c4.404,29.487,20.907,45.691,49.652,49.975C70.729,54.051,54.532,70.407,49.984,99.824z"
	/>
</g></g><g transform="translate(731,989) scale(0.43,0.43)"><g transform="" style="fill: rgb(246, 139, 157);">
<path style="fill-rule:evenodd;clip-rule:evenodd;" d="M49.984,99.824C45.848,69.47,28.497,53.961-0.345,49.773
	c29.054-3.697,45.791-19.659,50.348-49.949c4.404,29.487,20.907,45.691,49.652,49.975C70.729,54.051,54.532,70.407,49.984,99.824z"
	/>
</g></g><g transform="translate(774,989) scale(0.43,0.43)"><g transform="" style="fill: rgb(246, 139, 157);">
<path style="fill-rule:evenodd;clip-rule:evenodd;" d="M49.984,99.824C45.848,69.47,28.497,53.961-0.345,49.773
	c29.054-3.697,45.791-19.659,50.348-49.949c4.404,29.487,20.907,45.691,49.652,49.975C70.729,54.051,54.532,70.407,49.984,99.824z"
	/>
</g></g><g transform="translate(860,989) scale(0.43,0.43)"><g transform="" style="fill: rgb(246, 139, 157);">
<path style="fill-rule:evenodd;clip-rule:evenodd;" d="M49.984,99.824C45.848,69.47,28.497,53.961-0.345,49.773
	c29.054-3.697,45.791-19.659,50.348-49.949c4.404,29.487,20.907,45.691,49.652,49.975C70.729,54.051,54.532,70.407,49.984,99.824z"
	/>
</g></g><g transform="translate(903,989) scale(0.43,0.43)"><g transform="" style="fill: rgb(246, 139, 157);">
<path style="fill-rule:evenodd;clip-rule:evenodd;" d="M49.984,99.824C45.848,69.47,28.497,53.961-0.345,49.773
	c29.054-3.697,45.791-19.659,50.348-49.949c4.404,29.487,20.907,45.691,49.652,49.975C70.729,54.051,54.532,70.407,49.984,99.824z"
	/>
</g></g><g transform="translate(989,989) scale(0.43,0.43)"><g transform="" style="fill: rgb(246, 139, 157);">
<path style="fill-rule:evenodd;clip-rule:evenodd;" d="M49.984,99.824C45.848,69.47,28.497,53.961-0.345,49.773
	c29.054-3.697,45.791-19.659,50.348-49.949c4.404,29.487,20.907,45.691,49.652,49.975C70.729,54.051,54.532,70.407,49.984,99.824z"
	/>
</g></g><g transform="translate(344,1032) scale(0.43,0.43)"><g transform="" style="fill: rgb(246, 139, 157);">
<path style="fill-rule:evenodd;clip-rule:evenodd;" d="M49.984,99.824C45.848,69.47,28.497,53.961-0.345,49.773
	c29.054-3.697,45.791-19.659,50.348-49.949c4.404,29.487,20.907,45.691,49.652,49.975C70.729,54.051,54.532,70.407,49.984,99.824z"
	/>
</g></g><g transform="translate(430,1032) scale(0.43,0.43)"><g transform="" style="fill: rgb(246, 139, 157);">
<path style="fill-rule:evenodd;clip-rule:evenodd;" d="M49.984,99.824C45.848,69.47,28.497,53.961-0.345,49.773
	c29.054-3.697,45.791-19.659,50.348-49.949c4.404,29.487,20.907,45.691,49.652,49.975C70.729,54.051,54.532,70.407,49.984,99.824z"
	/>
</g></g><g transform="translate(473,1032) scale(0.43,0.43)"><g transform="" style="fill: rgb(246, 139, 157);">
<path style="fill-rule:evenodd;clip-rule:evenodd;" d="M49.984,99.824C45.848,69.47,28.497,53.961-0.345,49.773
	c29.054-3.697,45.791-19.659,50.348-49.949c4.404,29.487,20.907,45.691,49.652,49.975C70.729,54.051,54.532,70.407,49.984,99.824z"
	/>
</g></g><g transform="translate(516,1032) scale(0.43,0.43)"><g transform="" style="fill: rgb(246, 139, 157);">
<path style="fill-rule:evenodd;clip-rule:evenodd;" d="M49.984,99.824C45.848,69.47,28.497,53.961-0.345,49.773
	c29.054-3.697,45.791-19.659,50.348-49.949c4.404,29.487,20.907,45.691,49.652,49.975C70.729,54.051,54.532,70.407,49.984,99.824z"
	/>
</g></g><g transform="translate(559,1032) scale(0.43,0.43)"><g transform="" style="fill: rgb(246, 139, 157);">
<path style="fill-rule:evenodd;clip-rule:evenodd;" d="M49.984,99.824C45.848,69.47,28.497,53.961-0.345,49.773
	c29.054-3.697,45.791-19.659,50.348-49.949c4.404,29.487,20.907,45.691,49.652,49.975C70.729,54.051,54.532,70.407,49.984,99.824z"
	/>
</g></g><g transform="translate(602,1032) scale(0.43,0.43)"><g transform="" style="fill: rgb(246, 139, 157);">
<path style="fill-rule:evenodd;clip-rule:evenodd;" d="M49.984,99.824C45.848,69.47,28.497,53.961-0.345,49.773
	c29.054-3.697,45.791-19.659,50.348-49.949c4.404,29.487,20.907,45.691,49.652,49.975C70.729,54.051,54.532,70.407,49.984,99.824z"
	/>
</g></g><g transform="translate(688,1032) scale(0.43,0.43)"><g transform="" style="fill: rgb(246, 139, 157);">
<path style="fill-rule:evenodd;clip-rule:evenodd;" d="M49.984,99.824C45.848,69.47,28.497,53.961-0.345,49.773
	c29.054-3.697,45.791-19.659,50.348-49.949c4.404,29.487,20.907,45.691,49.652,49.975C70.729,54.051,54.532,70.407,49.984,99.824z"
	/>
</g></g><g transform="translate(731,1032) scale(0.43,0.43)"><g transform="" style="fill: rgb(246, 139, 157);">
<path style="fill-rule:evenodd;clip-rule:evenodd;" d="M49.984,99.824C45.848,69.47,28.497,53.961-0.345,49.773
	c29.054-3.697,45.791-19.659,50.348-49.949c4.404,29.487,20.907,45.691,49.652,49.975C70.729,54.051,54.532,70.407,49.984,99.824z"
	/>
</g></g><g transform="translate(774,1032) scale(0.43,0.43)"><g transform="" style="fill: rgb(246, 139, 157);">
<path style="fill-rule:evenodd;clip-rule:evenodd;" d="M49.984,99.824C45.848,69.47,28.497,53.961-0.345,49.773
	c29.054-3.697,45.791-19.659,50.348-49.949c4.404,29.487,20.907,45.691,49.652,49.975C70.729,54.051,54.532,70.407,49.984,99.824z"
	/>
</g></g><g transform="translate(817,1032) scale(0.43,0.43)"><g transform="" style="fill: rgb(246, 139, 157);">
<path style="fill-rule:evenodd;clip-rule:evenodd;" d="M49.984,99.824C45.848,69.47,28.497,53.961-0.345,49.773
	c29.054-3.697,45.791-19.659,50.348-49.949c4.404,29.487,20.907,45.691,49.652,49.975C70.729,54.051,54.532,70.407,49.984,99.824z"
	/>
</g></g><g transform="translate(989,1032) scale(0.43,0.43)"><g transform="" style="fill: rgb(246, 139, 157);">
<path style="fill-rule:evenodd;clip-rule:evenodd;" d="M49.984,99.824C45.848,69.47,28.497,53.961-0.345,49.773
	c29.054-3.697,45.791-19.659,50.348-49.949c4.404,29.487,20.907,45.691,49.652,49.975C70.729,54.051,54.532,70.407,49.984,99.824z"
	/>
</g></g><g transform="translate(1032,1032) scale(0.43,0.43)"><g transform="" style="fill: rgb(246, 139, 157);">
<path style="fill-rule:evenodd;clip-rule:evenodd;" d="M49.984,99.824C45.848,69.47,28.497,53.961-0.345,49.773
	c29.054-3.697,45.791-19.659,50.348-49.949c4.404,29.487,20.907,45.691,49.652,49.975C70.729,54.051,54.532,70.407,49.984,99.824z"
	/>
</g></g><g transform="translate(0,0) scale(0.43, 0.43)"><g transform="" style="fill: rgb(246, 139, 157);">
<g>


	<polygon points="13,0 0,87 87,100 100,13"/>
	<polygon points="100,17 183,0 200,83 117,100"/>
	<polygon points="200,10 290,0 300,90 200,100"/>
	<polygon points="300,15 385,0 400,85 315,100"/>
	<polygon points="400,12 488,0 500,88 412,100"/>
	<polygon points="522,0 500,78 578,100 600,22"/>
	<polygon points="615,5 605,85 685,95 695,15"/>

	<polygon points="0,115 85,100 100,185 15,200"/>
	<polygon points="600,112 688,100 700,188 612,200"/>

	<polygon points="22,200 0,278 78,300 100,222"/>
	<polygon points="615,205 605,285 685,295 695,215"/>

	<polygon points="0,310 90,300 100,390 0,400"/>
	<polygon points="600,315 685,300 700,385 615,400"/>

	<polygon points="0,412 88,400 100,488 12,500"/>
	<polygon points="622,400 600,478 678,500 700,422"/>

	<polygon points="0,515 85,500 100,585 15,600"/>
	<polygon points="600,512 688,500 700,588 612,600"/>


	<polygon points="13,600 0,687 87,700 100,613"/>
	<polygon points="100,617 183,600 200,683 117,700"/>
	<polygon points="200,610 290,600 300,690 200,700"/>
	<polygon points="300,615 385,600 400,685 315,700"/>
	<polygon points="400,612 488,600 500,688 412,700"/>
	<polygon points="522,600 500,678 578,700 600,622"/>
	<polygon points="615,605 605,685 685,695 695,615"/>

</g>
</g></g><g transform="translate(774,0) scale(0.43, 0.43)"><g transform=" translate(700, 0) scale(-1,1) " style="fill: rgb(246, 139, 157);">
<g>


	<polygon points="13,0 0,87 87,100 100,13"/>
	<polygon points="100,17 183,0 200,83 117,100"/>
	<polygon points="200,10 290,0 300,90 200,100"/>
	<polygon points="300,15 385,0 400,85 315,100"/>
	<polygon points="400,12 488,0 500,88 412,100"/>
	<polygon points="522,0 500,78 578,100 600,22"/>
	<polygon points="615,5 605,85 685,95 695,15"/>

	<polygon points="0,115 85,100 100,185 15,200"/>
	<polygon points="600,112 688,100 700,188 612,200"/>

	<polygon points="22,200 0,278 78,300 100,222"/>
	<polygon points="615,205 605,285 685,295 695,215"/>

	<polygon points="0,310 90,300 100,390 0,400"/>
	<polygon points="600,315 685,300 700,385 615,400"/>

	<polygon points="0,412 88,400 100,488 12,500"/>
	<polygon points="622,400 600,478 678,500 700,422"/>

	<polygon points="0,515 85,500 100,585 15,600"/>
	<polygon points="600,512 688,500 700,588 612,600"/>


	<polygon points="13,600 0,687 87,700 100,613"/>
	<polygon points="100,617 183,600 200,683 117,700"/>
	<polygon points="200,610 290,600 300,690 200,700"/>
	<polygon points="300,615 385,600 400,685 315,700"/>
	<polygon points="400,612 488,600 500,688 412,700"/>
	<polygon points="522,600 500,678 578,700 600,622"/>
	<polygon points="615,605 605,685 685,695 695,615"/>

</g>
</g></g><g transform="translate(0,774) scale(0.43, 0.43)"><g transform=" translate(0,700) scale(1,-1) " style="fill: rgb(246, 139, 157);">
<g>


	<polygon points="13,0 0,87 87,100 100,13"/>
	<polygon points="100,17 183,0 200,83 117,100"/>
	<polygon points="200,10 290,0 300,90 200,100"/>
	<polygon points="300,15 385,0 400,85 315,100"/>
	<polygon points="400,12 488,0 500,88 412,100"/>
	<polygon points="522,0 500,78 578,100 600,22"/>
	<polygon points="615,5 605,85 685,95 695,15"/>

	<polygon points="0,115 85,100 100,185 15,200"/>
	<polygon points="600,112 688,100 700,188 612,200"/>

	<polygon points="22,200 0,278 78,300 100,222"/>
	<polygon points="615,205 605,285 685,295 695,215"/>

	<polygon points="0,310 90,300 100,390 0,400"/>
	<polygon points="600,315 685,300 700,385 615,400"/>

	<polygon points="0,412 88,400 100,488 12,500"/>
	<polygon points="622,400 600,478 678,500 700,422"/>

	<polygon points="0,515 85,500 100,585 15,600"/>
	<polygon points="600,512 688,500 700,588 612,600"/>


	<polygon points="13,600 0,687 87,700 100,613"/>
	<polygon points="100,617 183,600 200,683 117,700"/>
	<polygon points="200,610 290,600 300,690 200,700"/>
	<polygon points="300,615 385,600 400,685 315,700"/>
	<polygon points="400,612 488,600 500,688 412,700"/>
	<polygon points="522,600 500,678 578,700 600,622"/>
	<polygon points="615,605 605,685 685,695 695,615"/>

</g>
</g></g><g transform="translate(86,86) scale(0.43, 0.43)"><g transform="" style="fill: rgb(246, 139, 157);">
<g>

	<polygon points="13,0 0,87 87,100 100,13"/>
	<polygon points="100,17 183,0 200,83 117,100"/>
	<polygon points="200,10 290,0 300,90 200,100"/>

	<polygon points="5,125 75,105 195,175 25,195"/>
	<polygon points="65,63 62,232 228,238 236,68"/>
	<polygon points="215,105 205,185 285,195 295,115"/>

	<polygon points="0,215 85,200 100,285 15,300"/>
	<polygon points="100,212 188,200 200,288 112,300"/>
	<polygon points="222,200 200,278 278,300 300,222"/>


</g>
</g></g><g transform="translate(860,86) scale(0.43, 0.43)"><g transform=" translate(300, 0) scale(-1,1) " style="fill: rgb(246, 139, 157);">
<g>

	<polygon points="13,0 0,87 87,100 100,13"/>
	<polygon points="100,17 183,0 200,83 117,100"/>
	<polygon points="200,10 290,0 300,90 200,100"/>

	<polygon points="5,125 75,105 195,175 25,195"/>
	<polygon points="65,63 62,232 228,238 236,68"/>
	<polygon points="215,105 205,185 285,195 295,115"/>

	<polygon points="0,215 85,200 100,285 15,300"/>
	<polygon points="100,212 188,200 200,288 112,300"/>
	<polygon points="222,200 200,278 278,300 300,222"/>


</g>
</g></g><g transform="translate(86,860) scale(0.43, 0.43)"><g transform=" translate(0,300) scale(1,-1) " style="fill: rgb(246, 139, 157);">
<g>

	<polygon points="13,0 0,87 87,100 100,13"/>
	<polygon points="100,17 183,0 200,83 117,100"/>
	<polygon points="200,10 290,0 300,90 200,100"/>

	<polygon points="5,125 75,105 195,175 25,195"/>
	<polygon points="65,63 62,232 228,238 236,68"/>
	<polygon points="215,105 205,185 285,195 295,115"/>

	<polygon points="0,215 85,200 100,285 15,300"/>
	<polygon points="100,212 188,200 200,288 112,300"/>
	<polygon points="222,200 200,278 278,300 300,222"/>


</g>
</g></g></g></svg>